<svg id="Layer_1" data-name="Layer 1" xmlns="http://www.w3.org/2000/svg" viewBox="0 0 100 100"><defs><style>.cls-1{fill:#999;fill-rule:evenodd;}</style></defs><path class="cls-1" d="M49.94,6.21A31.54,31.54,0,0,1,61.29,8.29L66.37.48a.9.9,0,1,1,1.52,1L63,9c8.11,3.75,13.63,10.87,13.79,19.07H23.1c.16-8.2,5.68-15.32,13.79-19.07L32,1.46a.9.9,0,0,1,1.52-1l5.08,7.81A31.54,31.54,0,0,1,49.94,6.21ZM45.05,80.49v13.4a6,6,0,0,1-6,6h0a6.06,6.06,0,0,1-6-6V80.49H27.94a4.89,4.89,0,0,1-4.88-4.88V31.69H76.82V75.61a4.89,4.89,0,0,1-4.88,4.88h-5v13.4a6,6,0,0,1-6,6h0a6.06,6.06,0,0,1-6-6V80.49ZM13.31,31.9h0a6,6,0,0,1,6,6V62a6,6,0,0,1-6,6h0a6,6,0,0,1-6-6V37.93a6,6,0,0,1,6-6Zm73.26,0h0a6,6,0,0,1,6,6V62a6,6,0,0,1-6,6h0a6,6,0,0,1-6-6V37.93a6,6,0,0,1,6-6ZM38.34,14.37a3.09,3.09,0,1,1-3.09,3.09,3.1,3.1,0,0,1,3.09-3.09Zm23.2,0a3.09,3.09,0,1,1-3.08,3.09,3.09,3.09,0,0,1,3.08-3.09Z"/></svg>