<svg id="Layer_2" data-name="Layer 2" xmlns="http://www.w3.org/2000/svg" viewBox="0 0 100 100"><defs><style>.cls-1{fill:#999;fill-rule:evenodd;}</style></defs><path class="cls-1" d="M54.16,8.69A21.4,21.4,0,0,1,69.87,0,21.38,21.38,0,0,1,64.7,16c-7,8.38-14.89,7-14.89,7S48.32,16.39,54.16,8.69Z"/><path class="cls-1" d="M50.64,28.68C54,28.68,60.29,24,68.46,24c14.06,0,19.59,10,19.59,10A21.71,21.71,0,0,0,77.23,53c0,15.14,13.47,20.35,13.47,20.35S81.28,99.84,68.56,99.84c-5.84,0-10.38-3.94-16.54-3.94S39.52,100,35.47,100C23.85,100,9.18,74.84,9.18,54.63c0-19.88,12.42-30.32,24.07-30.32C40.83,24.31,46.7,28.68,50.64,28.68Z"/></svg>