<?xml version="1.0" encoding="utf-8"?>
<!-- Generator: Adobe Illustrator 22.1.0, SVG Export Plug-In . SVG Version: 6.00 Build 0)  -->
<svg version="1.1" id="Layer_1" xmlns="http://www.w3.org/2000/svg" xmlns:xlink="http://www.w3.org/1999/xlink" x="0px" y="0px"
	 viewBox="0 0 95 115" style="enable-background:new 0 0 95 115;" xml:space="preserve">
<style type="text/css">
	.st0{fill:#211915;}
</style>
<g>
	<path class="st0" d="M73.7,99.9v-4.3c0-0.9,0.2-0.8-1.1-0.8h-6.9c-1.2,0-1.1-0.1-1.1,0.8c0,6.4,0,11.5,0,17.9
		c0,0.9,0.4,1.1,1.6,1.1H72c1.2,0,1.6,0.1,1.6-0.8v-5.2h10.1v5.7c0,0.9-0.2,0.8,1.1,0.8H91c1.2,0,1.3,0.1,1.3-0.8
		c0-8.5-0.2-16.3,0-24.8c0-2.5-1.2-4.7-2.8-4.7c-1.6-0.1-3,1.9-3,4.5l-0.1,6.1h-1.3c-1.2,0-1.3-0.1-1.3,0.8v3.8H73.7L73.7,99.9z"/>
	<polygon class="st0" points="32.1,95 32.4,114.5 59,114.5 59,107.9 41.6,107.9 41.6,101.3 59.2,101.3 59.2,95 32.1,95 	"/>
	<path class="st0" d="M88.4,48.3c0-0.7-1.1-0.7-1.1,0v3c0,0.5,0.4,0.7,0.9,0.7h5.2c0.5,0,0.9-0.2,0.9-0.7v-3.1c0-0.7-1.1-0.7-1.1,0
		v2.7h-2v-2.4c0-0.7-1.1-0.7-1.1,0v2.4h-1.7V48.3L88.4,48.3z"/>
	<path class="st0" d="M88.5,53.3c0-0.8-1.2-0.8-1.2,0v3.6c0,0.8,1.2,0.8,1.2,0v-1.2h5.1c1.1,0,1.1-1.1,0-1.1h-5.1V53.3L88.5,53.3z"
		/>
	<path class="st0" d="M92.2,59.2c-1.5,0.8-3,1.6-4.5,2.4c-0.1,0.1-0.2,0.1-0.3,0.2c-0.8,0.6,0.2,1.1,0.8,1.1h5.4c1.1,0,1-1.1,0-1.1
		h-4.1c1.4-0.9,3.3-1.7,4.7-2.5c0.7-0.4,0-1.1-0.7-1.1H88c-1.1,0-1.1,1,0,1H92.2L92.2,59.2z"/>
	<path class="st0" d="M88.4,64.4c0-0.7-1.1-0.7-1.1,0v3c0,0.5,0.4,0.7,0.9,0.7h5.2c0.5,0,0.9-0.1,0.9-0.7v-3.1c0-0.7-1.1-0.7-1.1,0
		V67h-2v-2.4c0-0.7-1.1-0.7-1.1,0V67h-1.7V64.4L88.4,64.4z"/>
	<path class="st0" d="M93.6,70.6c1.1,0,1.1-1.1,0-1.1h-5.5c-1.1,0-1.1,1.1,0,1.1H93.6L93.6,70.6z"/>
	<path class="st0" d="M91.8,73.9c0.7-0.7,1.9-1,2.5-1.4c0.4-0.2,0-1-0.5-0.9c-0.6,0.2-2,1.1-2.7,1.5c-0.1-0.5-0.3-0.8-0.7-1.1
		c-0.3-0.2-0.7-0.4-1.2-0.4c-0.9,0-1.7,0.5-1.9,1.4c-0.1,0.8,0,1.7,0,2.5c0,0.5,0.4,0.7,0.9,0.7h5.4c1.1,0,1.1-1.1,0-1.1h-2.2
		C91.3,74.6,91.3,74.2,91.8,73.9z M90.3,75.2h-1.9c0-0.8-0.3-2.3,0.9-2.3C90.6,72.9,90.3,74.3,90.3,75.2z"/>
	<path class="st0" d="M90.8,77.3c-1.8,0-3.6,0.8-3.6,2.8c0,2,1.9,2.7,3.6,2.7c1.7,0,3.6-0.7,3.6-2.8C94.4,78,92.6,77.3,90.8,77.3z
		 M90.8,81.6c-1,0-2.5-0.3-2.5-1.6c0-1.3,1.4-1.6,2.5-1.6c1,0,2.5,0.3,2.5,1.6C93.3,81.3,91.8,81.6,90.8,81.6z"/>
	<path class="st0" d="M90.8,14H78.7V3.3c0-1.6-1.3-2.9-2.9-2.9H28.9v0c-1,0-2,0.5-2.5,1.5c-1.1,1.9-2.3,3.6-3.6,5.1l-1.6-2.3
		c-2.2-3.1-7,0.2-4.8,3.4l2.1,3c-0.6,0.4-1.2,0.8-1.8,1.2c-3.7,2.1-7.9,3.1-12.7,2.8c-0.1,0-0.2,0-0.4,0c-1.6,0-2.9,1.3-2.9,2.9
		v96.2h27.2v-6.6H10.3v-6.6H28v-6.4H6.5l0-73.7c4.8-0.2,9.1-1.4,13-3.6c0.8-0.4,1.5-0.9,2.2-1.4l10.2,14.6
		c-8.5-0.4-14.1,5.3-14.1,13.7c0,4.3,1.2,7.7,3.5,10.1c3.2,3.3,8.4,4.2,12.8,3.3c8.7,10.3,10.9,20.7,5.3,31.4h14.2
		c-7-9.5,0.2-26.5,5.2-30.7c1.2,0.3,2.5,0.3,3.7,0.3c8.3,0,13-5.7,13-13.7c0-9.2-6.7-14.7-15.6-13.6c0-0.2,0.1-0.4,0.1-0.5
		c0.1-0.7,0.2-1.7,0.2-2.9c0-3.9-1.2-6.9-3.5-9.2c-2.3-2.3-5.6-3.4-9.8-3.4c-4.1,0-7.3,1.1-9.7,3.4c-1.4,1.3-2.4,2.9-3,4.7
		l-8.1-11.6c1.6-1.7,3-3.5,4.3-5.7h42.3V17c0,1.6,1.3,2.9,2.9,2.9h12.1v22.3c0,1.6,1.3,2.9,2.9,2.9c1.6,0,2.9-1.3,2.9-2.9V17
		C93.7,15.4,92.4,14,90.8,14z M37.3,38.2c0.9,1.3,2.8,1.7,4.1,0.7c1.3-0.9,1.7-2.8,0.7-4.1l-3.8-5.4c-0.1-1,0.1-2,0.4-3
		c1.2-3.3,4.9-4.4,8.1-4.4c4.4,0,8.5,2.2,8.5,7l-4.3,10.1c-0.2,0.9,8.8-4.1,13-2.5c3.4,1.3,4.5,5.1,4.5,8.4c0,4.5-2.3,8.7-7.2,8.7
		c-2.9,0-5.2-1.7-7.2-3.5h-0.6v6.2l0.8,0.4c-4,9.8-5.7,9.1-5-2.2l-3.3-0.3c-2.3,11.5-1.2,12.2-6.7,1.5l0.4-0.2v-6.2h-0.6
		c-2,1.8-4.4,3.5-7.2,3.5c-5,0-7.2-4.3-7.2-8.7c0-3.3,1.2-7.1,4.5-8.4C32.4,34.6,35.6,35.6,37.3,38.2z"/>
</g>
</svg>
