<?xml version="1.0" encoding="utf-8"?>
<!-- Generator: Adobe Illustrator 22.1.0, SVG Export Plug-In . SVG Version: 6.00 Build 0)  -->
<svg version="1.1" id="Layer_1" xmlns="http://www.w3.org/2000/svg" xmlns:xlink="http://www.w3.org/1999/xlink" x="0px" y="0px"
	 viewBox="0 0 115 105" style="enable-background:new 0 0 115 105;" xml:space="preserve">
<path d="M114.5,82.6l0-0.1l0-0.1l0-0.1l-0.1-0.1l-0.1-0.1l-0.1-0.1l-0.1-0.1l-0.1-0.1l-0.1-0.1l-0.1,0l-0.1,0l-0.1,0h-8.4V3.3V3.1
	l0-0.2l0-0.2L105,2.5L105,2.4l-0.1-0.2l-0.1-0.1l-0.1-0.1l-0.1-0.1l-0.1-0.1l-0.2-0.1l-0.2-0.1l-0.2,0l-0.2,0l-0.2,0h-0.2H84.7h-0.2
	l-0.2,0l-0.2,0l-0.2,0l-0.2,0.1l-0.2,0.1l-0.1,0.1l-0.1,0.1l-0.1,0.1l-0.1,0.1L83,2.4L83,2.5l-0.1,0.2l0,0.2l0,0.2l0,0.2v37.5
	L78.7,7.5l0-0.1c-8-5.6-17.6-7.1-27.9-7.1C23,0.3,0.6,23.6,0.6,52.3c0,28.8,22.5,52.1,50.2,52.1c10.9,0,20-2.2,29-7.4l3.1-32.5v37.3
	l0,0.2l0,0.2l0,0.2l0.1,0.2l0.1,0.2l0.1,0.2l0.1,0.1l0.1,0.1l0.1,0.1l0.1,0.1l0.2,0.1l0.2,0.1l0.2,0l0.2,0l0.2,0h0.2h18.5h0.2l0.2,0
	l0.2,0l0.2-0.1l0.2-0.1l0.2-0.1l0.2-0.1l0.2-0.2v0.1l0.1-0.2l0.1-0.1l0.1-0.1l0.1-0.1l0.1-0.1l9.4-19.3l0-0.2l0-0.2v-0.2L114.5,82.6
	z M82.7,42.3H64V29.4l0-0.4l0-0.4l0-0.3L63.8,28l0-0.1l-0.1-0.1l-0.1-0.1l-0.1-0.1l-0.1-0.1l-0.1-0.1l-0.1-0.1l-0.1-0.1L63.1,27
	L63,26.9l-0.1-0.1l-0.1-0.1l-0.1-0.1l-0.1-0.1l-0.1-0.1l-0.1,0L62,26.4l-0.3-0.1l-0.3,0h-0.4H46.5h-0.4l-0.3,0l-0.3,0.1l-0.3,0.1
	l-0.1,0l-0.1,0.1l-0.1,0.1l-0.1,0.1l-0.1,0.1l-0.1,0.1L44.3,27l-0.1,0.1l-0.1,0.1L44,27.3L44,27.4l-0.1,0.1l-0.1,0.1l-0.1,0.1
	l-0.1,0.1l0,0.1l-0.1,0.3l-0.1,0.3l0,0.4v0.4v46.3v0.4l0,0.3l0.1,0.3l0.1,0.3l0,0.1l0.1,0.1l0.1,0.1l0.1,0.1l0.1,0.1l0.1,0.1
	l0.1,0.1l0.1,0.1l0.1,0.1l0.1,0.1l0.1,0.1l0.1,0.1l0.1,0.1l0.1,0.1l0.1,0.1l0.1,0l0.3,0.1l0.3,0l0.3,0h0.4h14.4h0.4l0.3,0l0.3,0
	l0.3-0.1l0.1,0l0.1-0.1l0.1-0.1l0.1-0.1l0.1-0.1l0.1-0.1l0.1-0.1l0.1-0.1l0.1-0.1l0.1-0.1l0.1-0.1l0.1-0.1l0.1-0.1l0.1-0.1l0.1-0.1
	l0-0.1l0.1-0.3l0-0.3l0-0.3l0-0.4V62.5l18.4,0c0,0-16,20.4-29.7,20.4c-17.4,0-31.5-13.9-31.5-31s14.1-31,31.5-31
	C66.7,21,78.5,29.9,82.7,42.3L82.7,42.3z"/>
</svg>
