<?xml version="1.0" encoding="utf-8"?>
<!-- Generator: Adobe Illustrator 22.1.0, SVG Export Plug-In . SVG Version: 6.00 Build 0)  -->
<svg version="1.1" id="Layer_1" xmlns="http://www.w3.org/2000/svg" xmlns:xlink="http://www.w3.org/1999/xlink" x="0px" y="0px"
	 viewBox="0 0 116 47" style="enable-background:new 0 0 116 47;" xml:space="preserve">
<style type="text/css">
	.st0{fill-rule:evenodd;clip-rule:evenodd;fill:#211915;}
</style>
<g>
	<path class="st0" d="M101.8,27.9L101.8,27.9c-3.9,0-6.4,2.3-6.4,6.3c0,3.9,2.6,6.3,6.4,6.3h0c3.9,0,6.4-2.3,6.4-6.3
		C108.3,30.2,105.7,27.9,101.8,27.9z M101.8,37.8L101.8,37.8c-2.1,0-2.6-1.9-2.6-3.6c0-1.8,0.5-3.6,2.5-3.6h0c2.1,0,2.5,1.9,2.5,3.6
		C104.4,35.8,103.9,37.8,101.8,37.8z"/>
	<polygon class="st0" points="88.9,23.7 88.7,23.7 88.7,26.6 88.9,26.6 92.7,26.6 92.7,23.7 	"/>
	<path class="st0" d="M88.9,28.3h-2.3v2.6h2.2v8.1c0,2.3-1,3.4-3.4,2.5h-0.3v2.7c1.2,0.3,2.5,0.4,3.7,0.2c2-0.4,3.7-1.6,3.7-4.1v-12
		H88.9z"/>
	<path class="st0" d="M78.7,40.4v-2.8c1.8,0.4,4.3-0.2,5.6-1.2h0.4v3C83,40.1,80.8,40.5,78.7,40.4L78.7,40.4z"/>
	<path class="st0" d="M79.2,27.9c-0.2,0-0.3,0-0.5,0c-3.6,0.2-6.2,2.5-6.2,6.3c0,2,0.6,3.5,1.9,4.5c1.2,1,2.7,1.5,4.3,1.6v-2.8
		c-1.3-0.3-2.3-1.1-2.4-2.7h2.4h6.2v-1.3C84.9,29.9,82.8,27.9,79.2,27.9z M78.7,32.6h-2.4c0.1-1.5,1.3-2.3,2.4-2.4
		c1.2-0.1,2.4,0.7,2.5,2.4H78.7z"/>
	<polygon points="67.9,23.7 66,23.7 66,40 67.9,40 69.8,40 69.8,23.7 	"/>
	<polygon class="st0" points="60.5,23.7 58.6,23.7 58.6,40 60.5,40 62.4,40 62.4,23.7 	"/>
	<polygon class="st0" points="0.8,43.8 0.8,31.4 3.7,31.4 3.7,39.4 6.7,39.4 6.7,31.5 9.7,31.5 9.7,43.6 0.8,43.8 	"/>
	<path class="st0" d="M108.5,0.6h-6.7H88.9H78.7H67.9H66h-5.5H49.3H23.4c-3.8,0-7,3.1-7,7v32.3c0,3.8,3.1,7,7,7h25.9h11.2H66h1.9
		h10.8h10.2h12.9h6.7c3.8,0,7-3.1,7-7V7.6C115.5,3.8,112.4,0.6,108.5,0.6z M113.7,39.8c0,2.8-2.3,5.1-5.1,5.1h-6.7H88.9H78.7H67.9
		H66h-5.5H49.3H23.4c-2.8,0-5.1-2.3-5.1-5.1V7.6c0-2.8,2.3-5.1,5.1-5.1h25.9h11.2H66h1.9h10.8h10.2h12.9h6.7c2.8,0,5.1,2.3,5.1,5.1
		V39.8z"/>
	<path class="st0" d="M53.8,7.2c-1.5,0.9-3,1.9-4.5,3c-7.2,5.4-13.4,13-17.7,20.6C30.9,28.9,29.3,24,27,24c-1.4,0-2.9,0.9-4.6,2.8
		c3.9,1.4,6.3,8.7,7.3,12.6c1.4-1.4,3.1-2.4,4.6-3.5c3.5-7.6,8.9-16.1,15.1-22.6c1.7-1.8,3.5-3.4,5.3-4.8L53.8,7.2z"/>
	<path class="st0" d="M53.7,28.9c-1.1-0.8-2.7-1.1-4.4-1.1c-1.7,0-3.5,0.3-4.9,0.7v2.8h0.3c0.9-0.3,2.9-0.9,4.5-0.8
		c1.2,0.1,2.1,0.5,2.1,1.7v0.1c-0.6,0-1.4,0.1-2.1,0.1v2.2c0.8-0.1,1.6-0.1,2.1-0.2V37c-0.5,0.4-1.3,0.7-2.1,0.8v2.1
		c0.8-0.3,1.5-0.6,2.1-1.1V40h3.7C55.2,37.3,56.3,30.7,53.7,28.9z"/>
	<path class="st0" d="M49.3,32.4c-2.8,0.3-5.9,1-5.9,4.2c0,3.6,3.3,4.1,5.9,3.2v-2.1c-1.1,0.1-2.1-0.2-2.1-1.4c0-1.1,1-1.5,2.1-1.7
		V32.4L49.3,32.4z"/>
	<polygon class="st0" points="1,29.5 1,17.1 3.9,17.1 3.9,25.2 6.9,25.2 6.9,17.2 9.9,17.2 9.9,29.4 1,29.5 	"/>
	<path class="st0" d="M3.9,11V6.6H1.5c-0.4,0-0.3,0.1-0.3-0.4V2.4C1.2,1.8,1.1,2,1.5,2C4.5,2,7,2,9.9,2c0.4,0,0.3,0,0.3,0.6v3.7
		c0,0.6,0.1,0.4-0.3,0.4H7.2V11h2.5c0.4,0,0.3-0.1,0.3,0.4v3.8c0,0.6,0.1,0.4-0.3,0.4c-2.9,0-5.4,0-8.4,0c-0.4,0-0.3,0.1-0.3-0.4
		v-3.8C1,10.8,0.9,11,1.3,11H3.9z"/>
</g>
</svg>
