<?xml version="1.0" encoding="utf-8"?>
<!-- Generator: Adobe Illustrator 22.1.0, SVG Export Plug-In . SVG Version: 6.00 Build 0)  -->
<svg version="1.1" id="Layer_1" xmlns="http://www.w3.org/2000/svg" xmlns:xlink="http://www.w3.org/1999/xlink" x="0px" y="0px"
	 viewBox="0 0 115 115" style="enable-background:new 0 0 115 115;" xml:space="preserve">
<style type="text/css">
	.st0{fill-rule:evenodd;clip-rule:evenodd;fill:#211915;}
</style>
<path class="st0" d="M70.6,91.5l4.5-29.6L28.8,37.7l0.7,10l40.4,14.9L70.6,91.5L58,66.2H19.9l12.7,25.3H70.6L70.6,91.5z M89.7,99.9
	l-0.4,0.3l1.4,2c0.2,0.3,0.3,0.5,0.2,0.7c0,0.2-0.1,0.4-0.3,0.5c-0.2,0.1-0.4,0.2-0.6,0.1c-0.2,0-0.4-0.2-0.6-0.4l-3.4-4.7
	c-0.2-0.3-0.3-0.5-0.2-0.7c0-0.2,0.2-0.4,0.4-0.6l2-1.5c0.3-0.2,0.5-0.4,0.7-0.5c0.2-0.1,0.4-0.2,0.6-0.2c0.3-0.1,0.5-0.1,0.8,0
	c0.3,0,0.5,0.1,0.7,0.3c0.2,0.1,0.4,0.3,0.6,0.5c0.3,0.5,0.5,0.9,0.4,1.4c-0.1,0.5-0.3,0.9-0.7,1.4c0.3,0,0.6,0,1,0.1
	c0.4,0.1,0.7,0.2,1.1,0.3c0.3,0.1,0.6,0.3,0.9,0.4c0.2,0.1,0.4,0.3,0.4,0.3c0.1,0.1,0.1,0.2,0.1,0.3c0,0.1,0,0.2-0.1,0.3
	c-0.1,0.1-0.1,0.2-0.3,0.3c-0.1,0.1-0.3,0.2-0.4,0.2c-0.1,0-0.3,0-0.4-0.1c-0.1,0-0.3-0.1-0.6-0.2L92,100c-0.4-0.2-0.7-0.3-1-0.3
	c-0.3-0.1-0.5-0.1-0.7,0C90.2,99.6,90,99.8,89.7,99.9L89.7,99.9z M88.6,96.8l-1.1,0.8l1.2,1.7l1.1-0.8c0.3-0.2,0.5-0.4,0.7-0.6
	c0.2-0.2,0.3-0.4,0.3-0.6c0-0.2-0.1-0.4-0.2-0.6c-0.1-0.2-0.3-0.3-0.5-0.4c-0.2-0.1-0.4-0.1-0.6,0C89.3,96.4,89,96.5,88.6,96.8
	L88.6,96.8z M81.5,105.1c0.3,0.5,0.6,0.9,0.9,1.2c0.3,0.3,0.6,0.5,1,0.6c0.4,0.1,0.7,0.1,1.2,0c0.4-0.1,0.9-0.3,1.4-0.6
	c0.4-0.2,0.8-0.5,1-0.8c0.3-0.3,0.5-0.6,0.6-0.9c0.1-0.4,0.2-0.8,0.1-1.2c-0.1-0.4-0.3-0.9-0.6-1.4l-1.8-3.2
	c-0.2-0.3-0.3-0.4-0.5-0.5c-0.2-0.1-0.4,0-0.6,0.1c-0.2,0.1-0.3,0.3-0.4,0.5c0,0.2,0,0.4,0.2,0.7l1.8,3.3c0.3,0.6,0.4,1,0.4,1.4
	c-0.1,0.4-0.4,0.7-0.9,1c-0.4,0.2-0.7,0.3-1,0.3c-0.3,0-0.5-0.1-0.8-0.3c-0.2-0.2-0.4-0.5-0.6-0.9l-1.8-3.2
	c-0.1-0.3-0.3-0.4-0.5-0.5c-0.2-0.1-0.4,0-0.6,0.1c-0.2,0.1-0.3,0.3-0.4,0.5c0,0.2,0,0.4,0.2,0.7L81.5,105.1L81.5,105.1z M81,106.3
	c0.2,0.4,0.2,0.9,0.1,1.3c-0.1,0.4-0.3,0.8-0.7,1.2c-0.3,0.4-0.8,0.6-1.4,0.9c-0.7,0.3-1.3,0.4-1.9,0.3c-0.4-0.1-0.7-0.2-1.1-0.5
	c-0.3-0.2-0.5-0.5-0.7-0.8c-0.1-0.2-0.1-0.3,0-0.5c0.1-0.2,0.2-0.3,0.4-0.4c0.2-0.1,0.3-0.1,0.4,0c0.1,0.1,0.3,0.2,0.4,0.3
	c0.2,0.2,0.3,0.3,0.5,0.4c0.2,0.1,0.4,0.2,0.6,0.2c0.2,0,0.5,0,0.8-0.1c0.4-0.2,0.7-0.4,0.9-0.7c0.2-0.3,0.2-0.6,0.1-0.9
	c-0.1-0.2-0.2-0.4-0.4-0.5c-0.2-0.1-0.4-0.1-0.7-0.1c-0.3,0-0.6,0-1,0.1c-0.5,0.1-1,0.1-1.4,0.1c-0.4,0-0.8-0.1-1.1-0.3
	c-0.3-0.2-0.5-0.5-0.7-0.9c-0.1-0.4-0.2-0.8-0.1-1.2c0.1-0.4,0.3-0.7,0.7-1c0.3-0.3,0.8-0.6,1.3-0.8c0.4-0.2,0.8-0.3,1.2-0.3
	c0.4,0,0.7,0,0.9,0.1c0.3,0.1,0.5,0.2,0.7,0.4c0.2,0.2,0.3,0.3,0.4,0.5c0.1,0.2,0.1,0.3,0,0.5c-0.1,0.2-0.2,0.3-0.4,0.4
	c-0.2,0.1-0.3,0.1-0.4,0c-0.1,0-0.3-0.1-0.4-0.3c-0.2-0.2-0.5-0.4-0.7-0.4c-0.2-0.1-0.6,0-0.9,0.1c-0.4,0.1-0.6,0.3-0.8,0.6
	c-0.2,0.2-0.2,0.5-0.1,0.7c0.1,0.1,0.1,0.2,0.3,0.3c0.1,0.1,0.3,0.1,0.4,0.1c0.2,0,0.3,0,0.5,0c0.2,0,0.4,0,0.8-0.1
	c0.4-0.1,0.8-0.1,1.2-0.1c0.4,0,0.7,0,1,0.1c0.3,0.1,0.5,0.2,0.8,0.4C80.7,105.6,80.9,105.9,81,106.3L81,106.3z M67.2,105.9l1,5.4
	l3-0.6c0.2,0,0.4,0,0.6,0.1c0.2,0.1,0.2,0.2,0.3,0.4c0,0.2,0,0.3-0.1,0.5c-0.1,0.1-0.3,0.2-0.5,0.3l-3.6,0.7c-0.3,0.1-0.6,0-0.7-0.1
	c-0.2-0.1-0.3-0.3-0.3-0.7l-1.1-5.7c-0.1-0.3,0-0.5,0.1-0.7c0.1-0.2,0.3-0.3,0.5-0.3c0.2,0,0.4,0,0.6,0.1
	C67,105.4,67.1,105.6,67.2,105.9L67.2,105.9z M64.5,106.8c0.2,0,0.4-0.1,0.5-0.2c0.1-0.1,0.2-0.3,0.2-0.4c0-0.2-0.1-0.3-0.2-0.4
	c-0.1-0.1-0.3-0.1-0.5-0.1l-4,0.2c-0.2,0-0.4,0.1-0.5,0.1c-0.1,0.1-0.2,0.2-0.3,0.3c-0.1,0.1-0.1,0.3-0.1,0.5l0.3,5.6
	c0,0.3,0.1,0.6,0.3,0.7c0.2,0.1,0.4,0.2,0.7,0.2l4.1-0.2c0.2,0,0.4-0.1,0.5-0.2c0.1-0.1,0.2-0.3,0.2-0.4c0-0.2-0.1-0.3-0.2-0.4
	c-0.1-0.1-0.3-0.2-0.5-0.1l-3.5,0.2l-0.1-2.1l3.2-0.2c0.2,0,0.4-0.1,0.5-0.2c0.1-0.1,0.2-0.3,0.1-0.4c0-0.2-0.1-0.3-0.2-0.4
	c-0.1-0.1-0.3-0.1-0.5-0.1l-3.2,0.2l-0.1-1.8L64.5,106.8L64.5,106.8z M57.8,107.2l-1.7-0.1l-0.2,5.5c0,0.3-0.1,0.5-0.2,0.7
	c-0.1,0.1-0.3,0.2-0.6,0.2c-0.2,0-0.4-0.1-0.5-0.3c-0.1-0.2-0.2-0.4-0.2-0.7l0.2-5.5L53,107c-0.3,0-0.5-0.1-0.6-0.2
	c-0.1-0.1-0.2-0.3-0.2-0.5c0-0.2,0.1-0.3,0.2-0.5c0.1-0.1,0.3-0.2,0.6-0.1l4.8,0.2c0.3,0,0.5,0.1,0.6,0.2c0.1,0.1,0.2,0.3,0.2,0.5
	c0,0.2-0.1,0.3-0.2,0.4C58.3,107.1,58.1,107.2,57.8,107.2L57.8,107.2z M47,105.4l2,4.9l0.9-4.4c0.1-0.3,0.2-0.5,0.3-0.6
	c0.1-0.1,0.3-0.2,0.5-0.1c0.2,0,0.4,0.1,0.5,0.3c0.1,0.2,0.1,0.4,0.1,0.7l-1.1,5.8c-0.1,0.6-0.5,0.9-1,0.8c-0.1,0-0.3-0.1-0.4-0.1
	c-0.1-0.1-0.2-0.1-0.3-0.2c-0.1-0.1-0.1-0.2-0.2-0.3c-0.1-0.1-0.1-0.3-0.2-0.4l-2-4.8l-0.8,4.3c-0.1,0.3-0.2,0.5-0.3,0.6
	c-0.2,0.1-0.3,0.2-0.5,0.1c-0.2,0-0.4-0.1-0.5-0.3c-0.1-0.2-0.1-0.4-0.1-0.7l1.1-5.7c0-0.2,0.1-0.4,0.2-0.6c0.1-0.1,0.2-0.2,0.4-0.3
	c0.2-0.1,0.3-0.1,0.5,0c0.1,0,0.2,0.1,0.3,0.1c0.1,0.1,0.2,0.1,0.2,0.2c0.1,0.1,0.1,0.2,0.2,0.3C46.9,105.1,47,105.2,47,105.4
	L47,105.4z M41.2,109.8l0-1l-2.9-1l-0.7,0.8c-0.3,0.3-0.5,0.5-0.6,0.6c-0.1,0.1-0.3,0.1-0.5,0c-0.2-0.1-0.3-0.2-0.4-0.4
	c-0.1-0.2-0.1-0.4,0-0.5c0-0.1,0.1-0.2,0.2-0.3c0.1-0.1,0.2-0.2,0.3-0.4l3.5-3.9c0.1-0.1,0.2-0.2,0.4-0.4c0.1-0.2,0.3-0.3,0.4-0.4
	c0.1-0.1,0.3-0.2,0.4-0.2c0.2,0,0.3,0,0.5,0.1c0.2,0.1,0.4,0.2,0.5,0.3c0.1,0.1,0.2,0.3,0.2,0.4c0,0.1,0.1,0.3,0.1,0.5
	c0,0.2,0,0.4,0,0.6l0.2,5.2c0,0.4,0,0.7-0.1,0.8c-0.1,0.2-0.2,0.3-0.4,0.4c-0.2,0.1-0.4,0.1-0.6,0c-0.1,0-0.2-0.1-0.3-0.2
	c-0.1-0.1-0.1-0.1-0.1-0.2c0-0.1,0-0.2-0.1-0.4C41.2,110.1,41.2,110,41.2,109.8L41.2,109.8z M39,106.9l2.1,0.8l0-3.3L39,106.9
	L39,106.9z M34.4,100.5l-2.5,4.9l2.8,1.4c0.2,0.1,0.4,0.3,0.4,0.4c0.1,0.2,0.1,0.3,0,0.5c-0.1,0.2-0.2,0.3-0.4,0.3
	c-0.2,0-0.4,0-0.6-0.1l-3.3-1.7c-0.3-0.2-0.5-0.3-0.5-0.5c-0.1-0.2,0-0.4,0.1-0.7l2.6-5.2c0.1-0.3,0.3-0.4,0.5-0.5
	c0.2-0.1,0.4-0.1,0.6,0c0.2,0.1,0.3,0.3,0.4,0.5C34.6,100,34.6,100.2,34.4,100.5L34.4,100.5z M28.1,101c0.8,0.5,1.5,0.8,2.1,0.7
	c0.6-0.1,1.1-0.4,1.6-1c0.2-0.3,0.3-0.6,0.4-0.9c0.1-0.3,0.1-0.6,0-0.9c-0.1-0.3-0.2-0.6-0.4-0.8c-0.2-0.2-0.6-0.5-1-0.9L29,96.1
	c-0.3-0.2-0.5-0.3-0.7-0.2c-0.2,0-0.4,0.2-0.6,0.5l-3.2,4.8c-0.2,0.2-0.2,0.5-0.2,0.7c0,0.2,0.1,0.4,0.3,0.5
	c0.2,0.1,0.4,0.2,0.6,0.1c0.2-0.1,0.4-0.2,0.6-0.5l1.2-1.8L28.1,101L28.1,101z M29.7,98l-0.9-0.6l-1.3,1.9l0.9,0.6
	c0.3,0.2,0.6,0.3,0.8,0.4c0.2,0.1,0.5,0.1,0.7,0c0.2-0.1,0.4-0.2,0.5-0.5c0.2-0.3,0.3-0.6,0.2-0.8C30.6,98.7,30.3,98.3,29.7,98
	L29.7,98z M95.3,94.1c0.3,0.2,0.6,0.4,0.9,0.5c0.3,0.1,0.6,0.1,0.9,0c0.3-0.1,0.6-0.2,0.9-0.4c0.3-0.2,0.6-0.4,1-0.7
	c0.3-0.2,0.5-0.3,0.6-0.4c0.1-0.1,0.3-0.2,0.4-0.2c0.2-0.1,0.3-0.1,0.4-0.1c0.1,0,0.3,0.1,0.4,0.2c0.2,0.2,0.3,0.4,0.2,0.7
	c0,0.3-0.2,0.6-0.4,0.9c-0.3,0.3-0.5,0.5-0.8,0.6c-0.2,0-0.5,0-0.8,0c-0.2,0-0.4-0.1-0.5,0c-0.1,0-0.2,0.1-0.4,0.2
	C98,95.3,98,95.5,98,95.7c0,0.2,0.1,0.3,0.3,0.5c0.2,0.1,0.3,0.2,0.6,0.3c0.2,0.1,0.5,0.1,0.8,0c0.3,0,0.6-0.2,0.9-0.3
	c0.3-0.2,0.6-0.5,0.9-0.8c0.4-0.4,0.6-0.9,0.8-1.3c0.1-0.4,0.2-0.8,0.1-1.2c-0.1-0.4-0.3-0.7-0.6-1c-0.3-0.3-0.7-0.4-1-0.5
	c-0.4,0-0.7,0-1.1,0.2c-0.4,0.2-0.8,0.4-1.2,0.8c-0.3,0.3-0.6,0.4-0.8,0.6c-0.2,0.1-0.4,0.2-0.7,0.2c-0.2,0-0.4-0.1-0.6-0.2
	c-0.2-0.2-0.4-0.5-0.3-0.8c0-0.4,0.2-0.7,0.5-1c0.2-0.3,0.4-0.4,0.6-0.5c0.2-0.1,0.4-0.1,0.6-0.1c0.2,0,0.4,0.1,0.7,0.1
	c0.2,0.1,0.4,0.1,0.5,0.1c0.1,0,0.3-0.1,0.4-0.2c0.1-0.2,0.2-0.3,0.2-0.5c0-0.2-0.1-0.3-0.2-0.5c-0.2-0.2-0.6-0.3-1-0.4
	c-0.4-0.1-0.8,0-1.2,0.1c-0.5,0.2-1,0.6-1.5,1.1c-0.4,0.5-0.7,1-0.8,1.4c-0.1,0.5-0.1,0.9,0,1.3C94.7,93.5,95,93.8,95.3,94.1
	L95.3,94.1z M104.3,89.2l1.7-3l-1.6-0.9l-1.6,2.7c-0.1,0.2-0.2,0.3-0.4,0.4c-0.1,0-0.3,0-0.4-0.1c-0.1-0.1-0.2-0.2-0.3-0.4
	c0-0.2,0-0.3,0.1-0.5l1.6-2.7l-1.9-1.1l-1.8,3.1c-0.1,0.2-0.3,0.3-0.4,0.4c-0.2,0.1-0.3,0-0.5-0.1c-0.2-0.1-0.2-0.2-0.3-0.4
	c0-0.2,0-0.3,0.1-0.6l2.1-3.6c0.2-0.3,0.3-0.5,0.5-0.5c0.2-0.1,0.4,0,0.7,0.2L107,85c0.2,0.1,0.3,0.2,0.4,0.4
	c0.1,0.1,0.1,0.3,0.1,0.4c0,0.2-0.1,0.3-0.2,0.5l-2,3.5c-0.1,0.2-0.3,0.3-0.4,0.4c-0.2,0-0.3,0-0.5-0.1c-0.2-0.1-0.2-0.2-0.3-0.4
	C104.1,89.6,104.2,89.4,104.3,89.2L104.3,89.2z M111.2,77.5l-0.7,1.9c-0.2,0.5-0.4,0.9-0.6,1.2c-0.2,0.3-0.5,0.6-0.9,0.7
	c-0.9,0.5-2,0.5-3.3,0c-0.4-0.2-0.8-0.3-1.1-0.6c-0.3-0.2-0.6-0.4-0.8-0.7c-0.2-0.3-0.4-0.6-0.5-0.9c-0.1-0.3-0.2-0.5-0.2-0.8
	c0-0.3,0-0.5,0.1-0.8c0.1-0.3,0.1-0.6,0.3-0.9l0.7-1.9c0.1-0.3,0.2-0.4,0.3-0.5c0.1-0.1,0.3-0.1,0.4-0.1c0.2,0,0.4,0.1,0.6,0.2
	l5.2,2c0.3,0.1,0.5,0.3,0.6,0.5C111.3,76.9,111.3,77.2,111.2,77.5L111.2,77.5z M109.9,77.6l-4.8-1.8l-0.4,1.1
	c-0.1,0.2-0.2,0.4-0.2,0.6c0,0.1-0.1,0.3-0.1,0.5c0,0.2,0,0.3,0.1,0.5c0.2,0.6,0.8,1.1,1.8,1.5c0.7,0.3,1.3,0.4,1.7,0.3
	c0.4-0.1,0.7-0.3,1-0.5c0.2-0.3,0.4-0.6,0.6-1.1L109.9,77.6L109.9,77.6z M106.3,70.9l1-0.2l0.6-3l-0.9-0.5c-0.3-0.2-0.6-0.4-0.7-0.5
	c-0.1-0.1-0.1-0.3-0.1-0.5c0-0.2,0.1-0.3,0.3-0.5c0.2-0.1,0.3-0.2,0.5-0.1c0.1,0,0.2,0.1,0.3,0.1c0.1,0.1,0.2,0.1,0.4,0.3l4.4,2.8
	c0.1,0.1,0.3,0.2,0.5,0.3c0.2,0.1,0.3,0.2,0.4,0.3c0.1,0.1,0.2,0.2,0.2,0.4c0.1,0.2,0.1,0.3,0,0.5c0,0.2-0.1,0.4-0.2,0.5
	c-0.1,0.1-0.2,0.2-0.4,0.3c-0.1,0.1-0.3,0.1-0.4,0.1c-0.2,0-0.4,0.1-0.6,0.1l-5.1,1c-0.4,0.1-0.7,0.1-0.8,0.1
	c-0.2,0-0.3-0.1-0.4-0.3c-0.1-0.2-0.2-0.4-0.1-0.6c0-0.1,0.1-0.2,0.1-0.3c0.1-0.1,0.1-0.1,0.2-0.2c0.1,0,0.2-0.1,0.4-0.1
	C106.1,70.9,106.2,70.9,106.3,70.9L106.3,70.9z M109,68.3l-0.4,2.2l3.3-0.5L109,68.3L109,68.3z M114.5,59.2l-0.1,2
	c0,0.5-0.1,1-0.2,1.3c-0.1,0.4-0.3,0.7-0.6,1c-0.7,0.8-1.7,1.1-3.1,1.1c-0.5,0-0.9-0.1-1.2-0.2c-0.4-0.1-0.7-0.2-1-0.4
	c-0.3-0.2-0.6-0.4-0.8-0.7c-0.2-0.2-0.3-0.4-0.4-0.7c-0.1-0.2-0.2-0.5-0.2-0.8c0-0.3,0-0.6,0-0.9l0.1-2c0-0.3,0.1-0.5,0.1-0.6
	c0.1-0.1,0.2-0.2,0.4-0.3c0.2,0,0.4-0.1,0.6,0l5.5,0.2c0.3,0,0.6,0.1,0.7,0.2C114.4,58.6,114.5,58.9,114.5,59.2L114.5,59.2z
	 M113.3,59.7l-5.1-0.2l0,1.2c0,0.3,0,0.5,0,0.6c0,0.1,0,0.3,0.1,0.4c0.1,0.2,0.1,0.3,0.2,0.4c0.4,0.5,1.1,0.8,2.2,0.8
	c0.7,0,1.3-0.1,1.7-0.3c0.4-0.2,0.6-0.5,0.7-0.8c0.1-0.3,0.2-0.7,0.2-1.2L113.3,59.7L113.3,59.7z M107.5,54l5.9-0.5
	c0.3,0,0.5,0,0.7,0.1c0.2,0.1,0.3,0.3,0.3,0.5c0,0.2,0,0.4-0.2,0.6c-0.1,0.2-0.4,0.2-0.7,0.3l-5.9,0.5c-0.3,0-0.5,0-0.7-0.2
	c-0.2-0.1-0.3-0.3-0.3-0.5c0-0.2,0-0.4,0.2-0.6C107,54.1,107.2,54,107.5,54L107.5,54z M112.3,46.1l-3.8,3.7l4.4-0.9
	c0.3-0.1,0.5,0,0.7,0.1c0.2,0.1,0.3,0.2,0.3,0.5c0,0.2,0,0.4-0.1,0.6c-0.1,0.2-0.3,0.3-0.6,0.3l-5.8,1.1c-0.6,0.1-1-0.1-1.1-0.6
	c0-0.1,0-0.3,0-0.4c0-0.1,0.1-0.2,0.1-0.3c0.1-0.1,0.1-0.2,0.2-0.3c0.1-0.1,0.2-0.2,0.3-0.3l3.8-3.6l-4.3,0.8
	c-0.3,0.1-0.5,0-0.7-0.1c-0.2-0.1-0.3-0.3-0.3-0.5c0-0.2,0-0.4,0.1-0.6c0.1-0.2,0.3-0.3,0.6-0.3l5.7-1.1c0.2,0,0.4-0.1,0.6,0
	c0.2,0,0.3,0.1,0.4,0.2c0.1,0.1,0.2,0.3,0.2,0.5c0,0.1,0,0.3,0,0.4c0,0.1-0.1,0.2-0.1,0.3c-0.1,0.1-0.1,0.2-0.2,0.3
	C112.5,45.9,112.4,46,112.3,46.1L112.3,46.1z M105.1,41.9l0.7-0.7l-1.1-2.8l-1,0c-0.4,0-0.7,0-0.8,0c-0.2,0-0.3-0.2-0.4-0.4
	c-0.1-0.2-0.1-0.4,0-0.5c0.1-0.2,0.2-0.3,0.4-0.4c0.1,0,0.2-0.1,0.3-0.1c0.1,0,0.3,0,0.5,0l5.3,0c0.2,0,0.3,0,0.5,0
	c0.2,0,0.4,0,0.5,0c0.2,0,0.3,0.1,0.4,0.2c0.1,0.1,0.2,0.2,0.3,0.4c0.1,0.2,0.1,0.4,0.1,0.5c0,0.2-0.1,0.3-0.2,0.4
	c-0.1,0.1-0.2,0.2-0.3,0.4c-0.1,0.1-0.3,0.3-0.5,0.4l-3.8,3.6c-0.3,0.3-0.5,0.5-0.7,0.5c-0.2,0.1-0.3,0.1-0.5,0
	c-0.2-0.1-0.3-0.2-0.4-0.4c0-0.1-0.1-0.2-0.1-0.3c0-0.1,0-0.2,0.1-0.3c0-0.1,0.1-0.2,0.2-0.3C104.9,42.1,105,42,105.1,41.9
	L105.1,41.9z M105.9,38.3l0.8,2.1l2.5-2.2L105.9,38.3L105.9,38.3z M100.1,31.1l3.4-3.6l-4.4,2.8c-0.2,0.2-0.5,0.2-0.6,0.2
	c-0.2,0-0.3-0.1-0.5-0.3c-0.1-0.2-0.1-0.4-0.1-0.5c0-0.2,0.2-0.4,0.4-0.5l5-3.2c0.3-0.2,0.5-0.2,0.7-0.1c0.2,0.1,0.4,0.2,0.5,0.5
	l0.3,0.4c0.2,0.2,0.2,0.4,0.3,0.6c0,0.1,0,0.3-0.1,0.4c-0.1,0.1-0.2,0.3-0.4,0.5l-2.9,3.2l4.1-1.3c0.3-0.1,0.5-0.2,0.7-0.2
	c0.1,0,0.3,0,0.4,0.1c0.1,0.1,0.2,0.2,0.4,0.5l0.3,0.4c0.2,0.2,0.2,0.5,0.2,0.7c0,0.2-0.1,0.4-0.4,0.6l-5,3.2
	c-0.2,0.2-0.5,0.2-0.6,0.2c-0.2,0-0.3-0.1-0.5-0.3c-0.1-0.2-0.1-0.3-0.1-0.5c0-0.2,0.2-0.4,0.4-0.5l4.4-2.8l-4.7,1.6
	c-0.3,0.1-0.5,0.2-0.7,0.2c-0.1,0-0.3,0-0.5,0c-0.2,0-0.3-0.2-0.5-0.4c-0.1-0.1-0.1-0.3-0.1-0.4c0-0.1,0-0.3,0.1-0.4
	c0.1-0.1,0.1-0.2,0.2-0.4C99.9,31.3,100,31.2,100.1,31.1L100.1,31.1z M94.6,21c-0.4,0.4-0.8,0.7-1,1.1c-0.2,0.4-0.4,0.7-0.4,1.1
	c0,0.4,0.1,0.8,0.2,1.2c0.2,0.4,0.5,0.8,0.8,1.3c0.3,0.4,0.6,0.6,1,0.8c0.3,0.2,0.7,0.3,1,0.4c0.4,0,0.8,0,1.2-0.2
	c0.4-0.2,0.8-0.4,1.2-0.8l2.7-2.4c0.2-0.2,0.4-0.4,0.4-0.6c0-0.2,0-0.4-0.2-0.6c-0.2-0.2-0.3-0.3-0.5-0.3c-0.2,0-0.4,0.1-0.7,0.3
	l-2.8,2.4c-0.5,0.4-0.9,0.6-1.3,0.7c-0.4,0-0.8-0.2-1.2-0.6c-0.3-0.3-0.4-0.6-0.5-0.9c0-0.3,0-0.6,0.2-0.8c0.2-0.3,0.4-0.5,0.7-0.8
	l2.8-2.4c0.2-0.2,0.4-0.4,0.4-0.6c0-0.2,0-0.4-0.2-0.6c-0.1-0.2-0.3-0.3-0.5-0.3c-0.2,0-0.4,0.1-0.7,0.3L94.6,21L94.6,21z
	 M90.9,13.1l-1.3,1.7l2.6,2l1.3-1.7c0.2-0.2,0.4-0.4,0.6-0.4s0.4,0,0.6,0.2c0.2,0.1,0.3,0.3,0.3,0.5c0,0.2-0.1,0.4-0.3,0.7L91,20.7
	c-0.2,0.2-0.4,0.4-0.6,0.4c-0.2,0-0.4,0-0.6-0.2c-0.2-0.1-0.3-0.3-0.3-0.5c0-0.2,0.1-0.4,0.3-0.7l1.6-2l-2.6-2l-1.6,2
	c-0.2,0.2-0.4,0.4-0.6,0.4c-0.2,0-0.4,0-0.6-0.2c-0.2-0.1-0.3-0.3-0.3-0.5c0-0.2,0.1-0.4,0.3-0.7l3.6-4.7c0.2-0.2,0.4-0.4,0.6-0.4
	c0.2,0,0.4,0,0.6,0.2c0.2,0.1,0.3,0.3,0.3,0.5C91.1,12.6,91,12.8,90.9,13.1L90.9,13.1z M78.8,12.7l1.1-2.1l-0.3-3.4
	c0-0.3,0-0.5,0-0.7c0-0.2,0-0.3,0.1-0.4C79.7,6,79.8,5.9,80,5.8c0.2-0.1,0.4,0,0.5,0.1c0.2,0.1,0.3,0.2,0.3,0.4
	c0,0.2,0.1,0.4,0.1,0.8l0.2,2.7l2.3-1.4c0.1-0.1,0.3-0.2,0.4-0.2C84,8.1,84.1,8.1,84.2,8C84.3,8,84.4,8,84.5,8c0.1,0,0.2,0,0.3,0.1
	c0.2,0.1,0.3,0.2,0.3,0.4c0.1,0.2,0,0.3,0,0.5C85,9,84.9,9.1,84.8,9.2c-0.1,0.1-0.3,0.2-0.5,0.3l-3,1.7l-1.1,2.1
	c-0.1,0.3-0.3,0.5-0.5,0.5s-0.4,0.1-0.6,0c-0.2-0.1-0.3-0.3-0.4-0.5C78.7,13.2,78.7,13,78.8,12.7L78.8,12.7z M73.2,8.8
	c-0.1,0.4-0.3,0.8-0.6,1.1c-0.3,0.3-0.7,0.5-1.2,0.6c-0.5,0.1-1,0.1-1.6-0.1C69,10.3,68.4,10,68,9.7c-0.3-0.3-0.5-0.6-0.6-1
	c-0.1-0.4-0.2-0.7-0.1-1c0-0.2,0.1-0.3,0.3-0.4c0.2-0.1,0.3-0.1,0.5-0.1c0.2,0,0.3,0.1,0.4,0.2c0.1,0.1,0.1,0.3,0.2,0.5
	c0,0.3,0.1,0.5,0.2,0.7C68.9,8.7,69,8.9,69.2,9c0.2,0.1,0.4,0.3,0.7,0.3c0.4,0.1,0.8,0.1,1.1-0.1c0.3-0.1,0.5-0.4,0.6-0.7
	c0.1-0.2,0-0.5-0.1-0.6c-0.1-0.2-0.3-0.3-0.5-0.5c-0.2-0.1-0.5-0.3-0.9-0.5c-0.5-0.2-0.9-0.5-1.2-0.7c-0.3-0.2-0.5-0.5-0.7-0.9
	c-0.1-0.3-0.2-0.7-0.1-1.1c0.1-0.4,0.3-0.7,0.6-1c0.3-0.3,0.7-0.4,1.1-0.5c0.5-0.1,1,0,1.5,0.1c0.5,0.1,0.8,0.3,1.1,0.4
	c0.3,0.2,0.5,0.4,0.7,0.6c0.2,0.2,0.3,0.5,0.3,0.7c0.1,0.2,0.1,0.4,0,0.6c0,0.2-0.1,0.3-0.3,0.4c-0.2,0.1-0.3,0.1-0.5,0.1
	c-0.2,0-0.3-0.1-0.4-0.2c-0.1-0.1-0.1-0.3-0.2-0.5c-0.1-0.3-0.2-0.6-0.3-0.8c-0.2-0.2-0.4-0.3-0.8-0.4c-0.4-0.1-0.7-0.1-1,0
	c-0.3,0.1-0.4,0.3-0.5,0.5c0,0.1,0,0.3,0,0.4c0.1,0.1,0.1,0.2,0.3,0.4c0.1,0.1,0.3,0.2,0.4,0.3c0.1,0.1,0.4,0.2,0.7,0.4
	c0.4,0.2,0.7,0.4,1,0.6c0.3,0.2,0.6,0.4,0.8,0.6c0.2,0.2,0.3,0.5,0.4,0.8C73.2,8.1,73.2,8.5,73.2,8.8L73.2,8.8z M63.7,8.4l-0.3-1
	l-3.1-0.2L60,8.1c-0.2,0.4-0.3,0.6-0.4,0.7C59.4,9,59.3,9,59.1,9c-0.2,0-0.4-0.1-0.5-0.2c-0.1-0.2-0.2-0.3-0.2-0.5
	c0-0.1,0-0.2,0.1-0.3c0-0.1,0.1-0.3,0.2-0.4l2.3-4.7c0.1-0.1,0.1-0.3,0.2-0.5c0.1-0.2,0.2-0.3,0.3-0.5c0.1-0.1,0.2-0.2,0.4-0.3
	c0.1-0.1,0.3-0.1,0.5-0.1c0.2,0,0.4,0.1,0.5,0.2c0.1,0.1,0.2,0.2,0.3,0.3c0.1,0.1,0.1,0.3,0.2,0.4c0,0.1,0.1,0.3,0.2,0.6l1.6,5
	c0.1,0.4,0.2,0.7,0.2,0.8c0,0.2-0.1,0.3-0.3,0.5c-0.2,0.1-0.3,0.2-0.5,0.2c-0.1,0-0.2,0-0.3-0.1c-0.1,0-0.2-0.1-0.2-0.2
	c-0.1-0.1-0.1-0.2-0.2-0.4C63.8,8.6,63.8,8.5,63.7,8.4L63.7,8.4z M60.9,6.1l2.2,0.2l-0.9-3.2L60.9,6.1L60.9,6.1z M55,8.1l-0.1-5.9
	c0-0.3,0.1-0.5,0.2-0.7c0.1-0.2,0.3-0.2,0.5-0.2c0.2,0,0.4,0.1,0.6,0.2c0.1,0.1,0.2,0.4,0.2,0.7l0.1,5.9c0,0.3-0.1,0.5-0.2,0.7
	C56.2,8.9,56,9,55.7,9c-0.2,0-0.4-0.1-0.5-0.2C55.1,8.6,55,8.4,55,8.1L55,8.1z M52.5,6.6c0,0.2,0,0.5,0,0.8C52.4,7.7,52.2,8,52,8.3
	c-0.2,0.3-0.5,0.6-0.8,0.8c-0.4,0.2-0.8,0.4-1.3,0.5c-0.4,0.1-0.8,0.1-1.1,0.1c-0.3,0-0.6-0.1-0.9-0.2C47.6,9.4,47.3,9.2,47,9
	c-0.2-0.2-0.4-0.4-0.6-0.7C46.2,8,46,7.7,45.9,7.4c-0.1-0.3-0.2-0.7-0.3-1c-0.1-0.6-0.1-1.1,0-1.6c0.1-0.5,0.3-0.9,0.5-1.3
	c0.3-0.4,0.6-0.7,1-1C47.6,2.2,48,2,48.5,1.9c0.6-0.1,1.2-0.1,1.7,0.1c0.5,0.2,0.9,0.4,1.2,0.7c0.3,0.3,0.5,0.6,0.6,0.9
	c0,0.2,0,0.3-0.1,0.5c-0.1,0.2-0.2,0.2-0.4,0.3c-0.2,0-0.3,0-0.5-0.1c-0.1-0.1-0.2-0.2-0.4-0.4c-0.3-0.3-0.5-0.6-0.8-0.7
	c-0.3-0.1-0.6-0.2-1-0.1c-0.6,0.1-1.1,0.4-1.3,1c-0.3,0.5-0.3,1.2-0.2,2.1c0.1,0.6,0.3,1,0.5,1.4c0.2,0.4,0.5,0.6,0.8,0.7
	c0.3,0.1,0.7,0.2,1.1,0.1c0.4-0.1,0.8-0.2,1-0.5c0.3-0.3,0.4-0.6,0.5-1.1c0-0.2,0.1-0.4,0.2-0.5c0.1-0.1,0.2-0.2,0.4-0.3
	c0.2,0,0.3,0,0.5,0.1C52.4,6.3,52.4,6.4,52.5,6.6L52.5,6.6z M38.1,5.6L42.3,9l-1.4-4.3c-0.1-0.3-0.1-0.5,0-0.7
	c0.1-0.2,0.2-0.3,0.4-0.4c0.2-0.1,0.4-0.1,0.6,0C42,3.8,42.2,4,42.2,4.3l1.8,5.6c0.2,0.6,0,1-0.5,1.2c-0.1,0-0.3,0.1-0.4,0.1
	c-0.1,0-0.2,0-0.4-0.1c-0.1-0.1-0.2-0.1-0.3-0.2c-0.1-0.1-0.2-0.2-0.3-0.3l-4.1-3.3l1.4,4.2c0.1,0.3,0.1,0.5,0,0.7
	c-0.1,0.2-0.2,0.3-0.4,0.4c-0.2,0.1-0.4,0.1-0.6-0.1c-0.2-0.1-0.3-0.3-0.4-0.6l-1.8-5.5c-0.1-0.2-0.1-0.4-0.1-0.6
	c0-0.2,0.1-0.3,0.2-0.5c0.1-0.1,0.3-0.2,0.4-0.3c0.1,0,0.2-0.1,0.4,0c0.1,0,0.2,0,0.3,0.1c0.1,0,0.2,0.1,0.3,0.2
	C37.9,5.5,38,5.5,38.1,5.6L38.1,5.6z M32.8,8.4C33,8.3,33.1,8.2,33.1,8c0-0.2,0-0.3-0.1-0.5c-0.1-0.2-0.2-0.2-0.4-0.3
	c-0.2,0-0.3,0-0.5,0.1l-3.5,2c-0.2,0.1-0.3,0.2-0.4,0.3c-0.1,0.1-0.1,0.3-0.1,0.4c0,0.2,0.1,0.3,0.2,0.5l2.8,4.9
	c0.2,0.3,0.3,0.5,0.5,0.5c0.2,0.1,0.4,0,0.7-0.2l3.6-2.1c0.2-0.1,0.3-0.3,0.4-0.4c0.1-0.2,0-0.3-0.1-0.5c-0.1-0.2-0.2-0.3-0.4-0.3
	c-0.2,0-0.3,0-0.6,0.1l-3.1,1.8l-1.1-1.9l2.7-1.6c0.2-0.1,0.3-0.3,0.4-0.4c0-0.2,0-0.3-0.1-0.4c-0.1-0.1-0.2-0.2-0.4-0.3
	c-0.2,0-0.3,0-0.5,0.1l-2.7,1.6l-0.9-1.6L32.8,8.4L32.8,8.4z M28,18l-3.4-4.9c-0.2-0.3-0.3-0.5-0.2-0.7c0-0.2,0.1-0.4,0.3-0.5
	c0.2-0.1,0.4-0.2,0.6-0.1c0.2,0,0.4,0.2,0.6,0.4l3.4,4.9c0.2,0.3,0.3,0.5,0.2,0.7c0,0.2-0.1,0.4-0.3,0.5c-0.2,0.1-0.4,0.2-0.6,0.1
	C28.3,18.4,28.2,18.2,28,18L28,18z M25,18c-0.1-0.1-0.3-0.2-0.5-0.2c-0.2,0-0.3,0.1-0.5,0.2c-0.2,0.1-0.2,0.3-0.2,0.5
	c0,0.2,0.1,0.3,0.2,0.5c0.2,0.4,0.2,0.8,0.2,1.2c-0.1,0.4-0.3,0.7-0.6,1c-0.3,0.3-0.6,0.4-1,0.5c-0.4,0.1-0.7,0-1.1-0.2
	c-0.4-0.2-0.8-0.5-1.2-0.9c-0.6-0.6-0.9-1.3-1-1.9c-0.1-0.6,0.1-1.1,0.6-1.5c0.3-0.3,0.6-0.4,0.9-0.5c0.3,0,0.7,0,1.1,0.1
	c0.2,0.1,0.4,0.1,0.6,0.1c0.1,0,0.3-0.1,0.4-0.2c0.1-0.1,0.2-0.3,0.2-0.5c0-0.2-0.1-0.3-0.2-0.5c-0.2-0.2-0.5-0.4-1-0.5
	c-0.4-0.1-0.9-0.1-1.4,0.1c-0.5,0.1-1,0.4-1.4,0.8c-0.4,0.3-0.6,0.7-0.9,1.2c-0.2,0.4-0.3,0.9-0.3,1.4c0,0.5,0.1,0.9,0.3,1.4
	c0.2,0.5,0.5,0.9,0.9,1.4c0.3,0.3,0.5,0.5,0.8,0.7c0.3,0.2,0.6,0.4,0.9,0.5c0.3,0.1,0.6,0.2,0.9,0.2c0.3,0,0.7,0,1,0
	s0.6-0.2,0.9-0.3c0.3-0.2,0.6-0.4,0.9-0.7c0.4-0.4,0.7-0.7,0.8-1.1c0.2-0.4,0.3-0.8,0.3-1.1c0-0.4,0-0.7-0.2-1
	C25.3,18.4,25.2,18.2,25,18L25,18z M13.5,24.6l-2,2.8l1.5,1.1l1.9-2.6c0.1-0.2,0.3-0.3,0.4-0.3c0.2,0,0.3,0,0.4,0.1
	c0.1,0.1,0.2,0.2,0.2,0.4c0,0.2,0,0.3-0.2,0.5l-1.9,2.6l1.7,1.3l2.1-2.9c0.1-0.2,0.3-0.3,0.5-0.3c0.2,0,0.3,0,0.5,0.1
	c0.1,0.1,0.2,0.2,0.2,0.4c0,0.2,0,0.3-0.2,0.5l-2.4,3.4c-0.2,0.3-0.4,0.4-0.6,0.4c-0.2,0-0.4-0.1-0.7-0.2l-4.6-3.3
	c-0.2-0.1-0.3-0.3-0.4-0.4C10,27.9,10,27.8,10,27.6c0-0.1,0.1-0.3,0.2-0.5l2.4-3.3c0.1-0.2,0.3-0.3,0.4-0.3c0.2,0,0.3,0,0.4,0.1
	c0.1,0.1,0.2,0.2,0.2,0.4C13.7,24.2,13.7,24.4,13.5,24.6L13.5,24.6z M5.5,35.9c-0.1,0.3-0.2,0.5-0.1,0.7C5.5,36.8,5.7,37,6,37.1
	l5,2.3c0.2,0.1,0.4,0.2,0.6,0.2c0.2,0,0.3,0,0.4-0.1c0.1-0.1,0.3-0.3,0.4-0.5l0.8-1.8c0.1-0.3,0.3-0.6,0.3-0.9
	c0.1-0.3,0.1-0.5,0.1-0.8c0-0.3,0-0.5-0.1-0.8c-0.1-0.3-0.3-0.6-0.5-0.9c-0.2-0.3-0.5-0.5-0.8-0.8c-0.3-0.2-0.7-0.4-1.1-0.6
	c-1.2-0.6-2.3-0.7-3.3-0.2c-0.4,0.2-0.7,0.4-0.9,0.7c-0.2,0.3-0.5,0.7-0.7,1.1L5.5,35.9L5.5,35.9z M6.8,35.9L7.3,35
	c0.2-0.4,0.4-0.8,0.6-1c0.2-0.3,0.6-0.4,1-0.5c0.4,0,1,0.1,1.7,0.4c1,0.4,1.5,1,1.7,1.6c0,0.1,0.1,0.3,0,0.5c0,0.2,0,0.3-0.1,0.4
	c0,0.1-0.1,0.3-0.2,0.5l-0.5,1L6.8,35.9L6.8,35.9z M2.2,46.1c0.2-0.8,0.5-1.4,0.9-1.9c0.4-0.5,1-0.8,1.6-0.9c0.6-0.1,1.3-0.1,2.1,0
	c0.6,0.1,1.1,0.3,1.5,0.6c0.4,0.3,0.8,0.6,1,1c0.3,0.4,0.4,0.8,0.5,1.3c0.1,0.5,0,1-0.1,1.6c-0.1,0.6-0.3,1.1-0.6,1.5
	c-0.3,0.4-0.6,0.7-1,1c-0.4,0.2-0.9,0.4-1.4,0.4s-1,0-1.6-0.1c-0.6-0.1-1.1-0.3-1.5-0.6c-0.4-0.3-0.8-0.6-1-1
	c-0.3-0.4-0.4-0.8-0.5-1.3C2,47.1,2,46.6,2.2,46.1L2.2,46.1z M6.4,44.8c-0.5-0.1-1-0.1-1.5-0.1c-0.4,0.1-0.8,0.3-1.1,0.5
	c-0.3,0.3-0.5,0.6-0.6,1c-0.1,0.3-0.1,0.6,0,0.9c0.1,0.3,0.2,0.5,0.3,0.8c0.2,0.2,0.4,0.4,0.7,0.6C4.7,48.8,5,48.9,5.5,49
	c0.4,0.1,0.8,0.1,1.2,0.1c0.4,0,0.7-0.1,0.9-0.3c0.3-0.1,0.5-0.3,0.6-0.5c0.2-0.2,0.3-0.5,0.4-0.8c0.1-0.4,0.1-0.8,0-1.1
	c-0.1-0.4-0.4-0.7-0.7-1C7.5,45.2,7,45,6.4,44.8L6.4,44.8z M7.8,54.9l-5.9-0.5c-0.3,0-0.5-0.1-0.7-0.3C1.1,53.9,1,53.7,1,53.5
	c0-0.2,0.1-0.4,0.3-0.5c0.2-0.1,0.4-0.2,0.7-0.2l5.9,0.5c0.3,0,0.5,0.1,0.7,0.3c0.1,0.2,0.2,0.3,0.2,0.6c0,0.2-0.1,0.4-0.3,0.5
	C8.3,54.8,8.1,54.9,7.8,54.9L7.8,54.9z M5.4,57.3l1.4-0.1c0.2,0,0.3,0,0.5,0c0.1,0,0.2,0.1,0.3,0.2c0.1,0.1,0.2,0.2,0.3,0.4
	c0.3,0.4,0.5,0.9,0.6,1.3c0.1,0.4,0.2,0.9,0.2,1.4c0,0.6-0.1,1.1-0.2,1.6C8.3,62.6,8,63,7.7,63.3c-0.3,0.3-0.7,0.6-1.2,0.8
	c-0.5,0.2-1,0.3-1.6,0.3c-0.6,0-1.1,0-1.6-0.2c-0.5-0.2-0.9-0.4-1.3-0.7c-0.4-0.3-0.6-0.7-0.8-1.2c-0.2-0.5-0.3-1-0.3-1.6
	c0-0.5,0-1,0.2-1.4c0.1-0.4,0.3-0.7,0.5-1c0.2-0.3,0.4-0.4,0.6-0.6c0.2-0.1,0.4-0.2,0.6-0.2c0.2,0,0.4,0.1,0.5,0.2
	c0.1,0.1,0.2,0.3,0.2,0.5c0,0.1,0,0.2-0.1,0.3c0,0.1-0.1,0.2-0.2,0.3c-0.3,0.2-0.5,0.4-0.6,0.5c-0.1,0.1-0.3,0.3-0.4,0.5
	c-0.1,0.2-0.1,0.5-0.1,0.8c0,0.4,0.1,0.7,0.2,0.9c0.1,0.3,0.3,0.5,0.6,0.7c0.2,0.2,0.5,0.3,0.9,0.4c0.3,0.1,0.7,0.1,1.1,0.1
	c0.9,0,1.6-0.3,2-0.7c0.5-0.4,0.7-1,0.7-1.7c0-0.4-0.1-0.7-0.2-1c-0.1-0.3-0.2-0.6-0.4-0.9l-1.2,0l0,1.2c0,0.3,0,0.5-0.1,0.6
	c-0.1,0.1-0.2,0.2-0.4,0.2c-0.2,0-0.3-0.1-0.4-0.2c-0.1-0.1-0.2-0.3-0.2-0.5l-0.1-1.7c0-0.2,0-0.4,0-0.5c0-0.1,0.1-0.3,0.2-0.4
	C4.9,57.3,5.1,57.3,5.4,57.3L5.4,57.3z M2.9,67.8l0.7,3.4l1.8-0.4l-0.6-3.1c0-0.2,0-0.4,0.1-0.5C4.9,67.1,5,67,5.2,67
	c0.2,0,0.3,0,0.4,0.1c0.1,0.1,0.2,0.3,0.3,0.5l0.6,3.1l2.1-0.4l-0.7-3.5c0-0.2,0-0.4,0.1-0.6C8.1,66,8.2,66,8.4,65.9
	c0.2,0,0.3,0,0.5,0.1c0.1,0.1,0.2,0.3,0.3,0.5l0.8,4.1c0.1,0.3,0,0.6-0.1,0.7c-0.1,0.2-0.3,0.3-0.7,0.3l-5.6,1.1c-0.2,0-0.4,0-0.5,0
	c-0.1,0-0.3-0.1-0.4-0.2c-0.1-0.1-0.2-0.3-0.2-0.5l-0.8-3.9c0-0.2,0-0.4,0.1-0.6c0.1-0.1,0.2-0.2,0.4-0.3c0.2,0,0.3,0,0.5,0.1
	C2.8,67.4,2.9,67.6,2.9,67.8L2.9,67.8z M5.5,78.9l5.2-1.8l-1-2.9c-0.1-0.2-0.1-0.4,0-0.6c0.1-0.2,0.2-0.3,0.4-0.3
	c0.2-0.1,0.3,0,0.5,0c0.1,0.1,0.3,0.2,0.3,0.5l1.2,3.5c0.1,0.3,0.1,0.6,0,0.7c-0.1,0.2-0.3,0.3-0.6,0.4L6,80.4
	c-0.3,0.1-0.5,0.1-0.7,0c-0.2-0.1-0.3-0.2-0.4-0.4c-0.1-0.2-0.1-0.4,0-0.6C5,79.2,5.2,79,5.5,78.9L5.5,78.9z M8.3,86.9
	c-0.4-0.7-0.6-1.3-0.6-2c0-0.6,0.2-1.2,0.6-1.8c0.4-0.5,0.9-1,1.6-1.4c0.5-0.3,1-0.5,1.5-0.6c0.5-0.1,1-0.1,1.4,0
	c0.5,0.1,0.9,0.3,1.3,0.6c0.4,0.3,0.7,0.7,1,1.2c0.3,0.5,0.5,1,0.5,1.5c0.1,0.5,0,1-0.1,1.4c-0.2,0.4-0.4,0.8-0.7,1.2
	c-0.3,0.4-0.8,0.7-1.3,1c-0.5,0.3-1,0.5-1.5,0.6c-0.5,0.1-1,0.1-1.4,0c-0.5-0.1-0.9-0.3-1.2-0.6C8.9,87.8,8.6,87.4,8.3,86.9
	L8.3,86.9z M10.6,83.1c-0.5,0.3-0.9,0.6-1.1,0.9c-0.3,0.4-0.4,0.7-0.4,1.1c0,0.4,0.1,0.8,0.3,1.1c0.1,0.3,0.3,0.5,0.6,0.7
	c0.2,0.2,0.5,0.3,0.8,0.3c0.3,0.1,0.6,0,0.9,0c0.3-0.1,0.7-0.2,1.1-0.4c0.4-0.2,0.7-0.4,0.9-0.7c0.2-0.3,0.4-0.5,0.5-0.8
	c0.1-0.3,0.1-0.6,0.1-0.8c0-0.3-0.1-0.5-0.3-0.8c-0.2-0.3-0.4-0.6-0.8-0.8c-0.3-0.2-0.7-0.3-1.2-0.2C11.6,82.7,11.1,82.8,10.6,83.1
	L10.6,83.1z M16,89.2c0.2-0.1,0.4-0.3,0.7-0.4c0.3-0.1,0.6-0.1,1-0.1c0.4,0,0.7,0.1,1.1,0.3c0.4,0.2,0.7,0.5,1.1,0.9
	c0.2,0.3,0.4,0.6,0.6,0.9c0.1,0.3,0.2,0.6,0.3,0.9c0,0.3,0,0.6,0,1c-0.1,0.3-0.2,0.6-0.3,0.9c-0.1,0.3-0.3,0.6-0.5,0.8
	c-0.2,0.3-0.5,0.5-0.8,0.7c-0.5,0.4-0.9,0.7-1.4,0.8c-0.5,0.2-1,0.2-1.4,0.2c-0.5,0-0.9-0.2-1.3-0.4c-0.4-0.2-0.8-0.5-1.1-0.9
	c-0.4-0.5-0.6-1-0.7-1.5c-0.1-0.5-0.1-1,0-1.4c0.1-0.4,0.3-0.7,0.5-0.9c0.1-0.1,0.3-0.2,0.5-0.1c0.2,0,0.3,0.1,0.4,0.2
	c0.1,0.2,0.2,0.3,0.2,0.4c0,0.1-0.1,0.3-0.2,0.6c-0.2,0.4-0.2,0.7-0.2,1.1c0,0.3,0.2,0.6,0.4,0.9c0.4,0.5,0.9,0.7,1.5,0.7
	c0.6,0,1.2-0.3,1.9-0.8c0.5-0.4,0.8-0.7,1-1.1c0.2-0.4,0.3-0.7,0.2-1.1c0-0.4-0.2-0.7-0.4-1c-0.3-0.3-0.6-0.6-1-0.7
	c-0.4-0.1-0.8-0.1-1.2,0.1c-0.2,0.1-0.4,0.1-0.5,0.1c-0.2,0-0.3-0.1-0.4-0.2c-0.1-0.1-0.2-0.3-0.1-0.5C15.8,89.5,15.9,89.3,16,89.2
	L16,89.2z M70.6,91.5l21.3-27.4L58.1,21.8L54.6,33l32.8,29.9L70.6,91.5l8.6-29.6L41.8,38.4l-0.1-10.9l41.9,34.6L70.6,91.5l-8.6-26.8
	l-38.4-3l-2-10.2l44,12.1L70.6,91.5z"/>
</svg>
