<?xml version="1.0" encoding="utf-8"?>
<!-- Generator: Adobe Illustrator 22.1.0, SVG Export Plug-In . SVG Version: 6.00 Build 0)  -->
<svg version="1.1" id="Layer_1" xmlns="http://www.w3.org/2000/svg" xmlns:xlink="http://www.w3.org/1999/xlink" x="0px" y="0px"
	 viewBox="0 0 115 115" style="enable-background:new 0 0 115 115;" xml:space="preserve">
<style type="text/css">
	.st0{fill:none;stroke:#9D0054;stroke-width:0.5;stroke-miterlimit:10;}
	.st1{fill:none;stroke:#211915;stroke-miterlimit:10;}
	.st2{fill:#211915;}
</style>
<g>
	<g>
		<g>
			<polygon class="st1" points="58.1,87.9 64.1,94.8 65.1,87.9 			"/>
		</g>
		<g>
			<g>
				<polygon class="st2" points="68.6,58.1 62.9,58.1 65.3,67.7 65.1,67.7 55.4,58.1 50.8,58.1 55.9,79.3 63,79.3 60.6,69.6 
					70.1,79.2 74.1,79.2 				"/>
				<polygon class="st2" points="59.1,79.8 56,79.8 56.2,80.8 59.3,80.8 				"/>
				<polygon class="st2" points="59.4,81.4 56.4,81.4 56.6,82.3 59.7,82.3 				"/>
				<polygon class="st2" points="59.9,82.9 56.7,82.9 57,83.9 60.1,83.9 				"/>
				<polygon class="st2" points="60.3,84.4 57.1,84.4 57.4,85.4 60.5,85.4 				"/>
				<polygon class="st2" points="57.5,86 57.7,87 60.8,87 60.6,86 				"/>
				<polygon class="st2" points="60.1,79.8 60.3,80.8 63.4,80.8 63.2,79.8 				"/>
				<polygon class="st2" points="63.8,82.3 63.5,81.4 60.5,81.4 60.7,82.3 				"/>
				<polygon class="st2" points="63.9,82.9 60.8,82.9 61.1,83.9 64.1,83.9 				"/>
				<polygon class="st2" points="64.3,84.4 61.2,84.4 61.5,85.4 64.5,85.4 				"/>
				<polygon class="st2" points="61.6,86 61.8,87 64.9,87 64.7,86 				"/>
			</g>
			<g>
				<polygon class="st2" points="44,29.5 44.2,30.5 47.3,30.5 47,29.5 				"/>
				<polygon class="st2" points="43.8,29.1 51.1,29.1 50.8,28.1 43.5,28.1 				"/>
				<path class="st2" d="M52.7,35.7h-7.2l1.9,7.8c0,0-7.4,0.1-7.5,0.1c-0.3,0-0.6-0.3-0.7-0.6c0,0-1.8-7.3-1.8-7.3h-6.6l5,20.6
					l6.7,0l-1.5-5.7c0-0.1-0.1-0.2-0.1-0.3c0-0.3,0.2-0.5,0.4-0.6c0,0,6.9,0,7.1,0c0.4,0,0.5,0.6,0.5,0.6l1.4,6c0.3,0,6.8,0,6.8,0
					l0.4,0L52.7,35.7z"/>
				<polygon class="st2" points="50.7,27.5 50,24.7 42.7,24.7 43.4,27.5 				"/>
				<polygon class="st2" points="47.6,32 47.4,31.1 44.3,31.1 44.6,32 				"/>
				<polygon class="st2" points="48.1,33.6 47.8,32.6 44.7,32.6 44.9,33.6 				"/>
				<polygon class="st2" points="48.5,35.1 48.2,34.1 45.1,34.1 45.3,35.1 				"/>
				<polygon class="st2" points="48.3,30.5 51.4,30.5 51.1,29.5 48.1,29.5 				"/>
				<polygon class="st2" points="48.7,32 51.7,32 51.5,31.1 48.4,31.1 				"/>
				<polygon class="st2" points="49,33.6 52.1,33.6 51.9,32.6 48.8,32.6 				"/>
				<polygon class="st2" points="49.4,35.1 52.5,35.1 52.2,34.1 49.2,34.1 				"/>
			</g>
			<g>
				<polygon class="st1" points="86.7,71.7 81,71.7 82.8,79.3 70.1,79.2 60.6,69.6 64.3,84.4 89.7,84.3 				"/>
			</g>
			<g>
				<path class="st1" d="M81.8,53.6l-24.7,0l0.7,2.7c0,0-7,0-7.3,0l-1.4-5.9c0,0-0.1-0.7-0.6-0.7c-0.1,0-7,0-7,0
					c0,0-0.4,0.2-0.4,0.6c0,0.1,0,0.2,0.1,0.5l1.4,5.5l-6.7,0l-5-20.6l0,0l0,0h6.6c0,0,1.7,7.2,1.7,7.3c0.1,0.3,0.3,0.6,0.7,0.6
					c0.1,0,7.5,0,7.5,0l-3.2-13.1l-21.9,0l7.4,30.9h21.8l-0.8-3.2h4.6l9.7,9.6h0.2l-2.4-9.6l14.6,0l1,5.8h5.7L81.8,53.6z"/>
			</g>
			<g>
				<path class="st2" d="M60,39.6c-0.1-0.3-0.3-0.7-0.6-0.7c-0.2,0-0.4,0.1-0.5,0.3c-0.1,0.2-0.3,0.4-0.4,0.5
					c-0.2,0.1-0.4,0.2-0.5,0.3c-0.2,0.1-0.4,0.2-0.6,0.4c-0.3,0.2-0.6,0.4-0.7,0.8c-0.1,0.3,0,0.7,0.1,1.1c0.1,0.4,0.3,0.8,0.6,0.9
					c0.1-0.3,0.3-0.5,0.4-0.8c0-0.1,0.1-0.2,0.2-0.3c0.1-0.1,0.1-0.2,0.2-0.2c0.2-0.1,0.5-0.2,0.7-0.1c0.1,0.1,0.2,0.1,0.3,0.2
					c0.4,0.2,0.9,0.2,1.3,0.2c0.1,0.1,0,0.2-0.1,0.3s-0.2,0.1-0.3,0.1c-0.2,0-0.4,0-0.6,0c-0.2,0-0.3,0-0.5-0.1
					c-0.2-0.1-0.4-0.3-0.6-0.3c-0.2,0-0.3,0.2-0.3,0.3c-0.1,0.3-0.2,0.7-0.1,1c1.1,0,2.1,0,3.1,0.1c0-0.5,0-1.1-0.1-1.7
					c0-0.1,0-0.3-0.1-0.4c-0.1-0.3-0.2-0.7-0.4-1C60.4,40.2,60.2,39.9,60,39.6"/>
				<path class="st2" d="M61.3,40.7c-0.1-0.4-0.3-0.7-0.5-1.1c-0.2-0.4-0.1-0.9,0-1.3c0.2,0,0.4,0,0.5,0.1c0,0,0.1,0,0.1,0
					c0.1,0,0.2-0.1,0.2-0.1c0.1-0.1,0.3-0.3,0.4-0.4c0.1-0.1,0.2-0.1,0.2-0.2c0.1,0,0.2,0,0.3-0.1c0.2,0,0.5,0,0.7,0.1
					c0.1,0.1,0.2,0.3,0.3,0.5c0.7,0.4,1.5,1,1.9,1.8c0.3,0.7,0.3,1.5,0.1,2.2c-0.1,0.2-0.2,0.4-0.4,0.6c-0.3,0.4-0.8,0.5-1,0.9
					C64,44.1,64,44.5,64,44.9c0,0.9-0.1,2.5-0.1,3.4c-0.9,0-2.1-0.4-2.3-0.5c0.7-1,1-1.9,1-2.8c-0.1-0.1-0.2-0.1-0.3-0.2
					c-0.2-0.1-0.4-0.3-0.5-0.5c-0.1-0.2-0.1-0.5-0.1-0.7c0-0.6,0-1.3-0.1-1.9c0.5,0,1.1-0.1,1.6-0.3c0.2-0.1,0.5-0.3,0.6-0.5
					c0.1-0.2,0.1-0.4,0.1-0.6c0-0.1,0-0.2,0-0.4c-0.1-0.2-0.2-0.4-0.4-0.6c-0.1-0.1-0.1-0.1-0.2-0.2c-0.1,0-0.1,0-0.2,0
					c-0.4-0.1-0.8-0.1-1.2,0.1c-0.4,0.3-0.5,0.8-0.6,1.4"/>
				<path class="st2" d="M63.3,39.6c-0.2,0-0.4-0.1-0.5-0.1c-0.2,0-0.4,0.1-0.5,0.2c-0.2,0.2-0.2,0.5-0.1,0.8c0,0.1,0,0.2,0.1,0.3
					c0.1,0.1,0.3,0.2,0.4,0.2c0.3,0,0.6,0,0.8-0.2c0.1-0.1,0.1-0.3,0.1-0.5C63.5,40,63.4,39.7,63.3,39.6"/>
				<path class="st2" d="M64.5,43.9c0.5,0,1-0.3,1.2-0.8c0.1,0.2,0.1,0.4,0.2,0.6c0,0.1,0.1,0.2,0.1,0.3c0.1,0.4,0.1,0.8,0,1.1
					c-0.2,0.5-0.7,0.7-1.2,0.6c0-0.2-0.1-0.5,0.1-0.7c0.1-0.1,0.2-0.1,0.2-0.2c0-0.1,0-0.1,0-0.2c0,0-0.1,0-0.1,0
					C64.8,44.4,64.5,43.9,64.5,43.9z"/>
				<path class="st2" d="M64.5,46c0.4,0,0.8-0.1,1.2-0.2c0,0,0.3-0.2,0.4-0.3c0,0.3,0,0.7,0,1c-0.4,0.1-0.8,0.2-1.1,0.3
					c-0.2,0.1-0.3,0-0.4-0.1C64.4,46.5,64.4,46.2,64.5,46"/>
				<path class="st2" d="M64.3,47c0.5,0.3,0.7,0.1,1.2-0.1c0.3-0.1,0.5-0.1,0.5-0.2c0,0.4-0.1,1.1,0,1.5c-0.7,0.1-1.3,0.1-2,0.1
					C64.1,48,64.3,47.3,64.3,47"/>
				<path class="st2" d="M66,42.1c0.1,0.2,0.2,0.8,0.2,1c0.2-0.2,0.6-0.4,0.8-0.6c0,0,0.1-0.1,0.1-0.2c0-0.1,0-0.1,0-0.2
					c-0.2-0.4-0.5-0.7-0.8-0.9C66.3,41.3,66.2,41.8,66,42.1z"/>
				<path class="st2" d="M66.3,43.3c0.2,0.3,0.2,0.7,0.2,1.1c0.4,0,0.7,0,1.1,0c0.1-0.5,0-1.1-0.2-1.6
					C66.9,42.8,66.3,43.3,66.3,43.3z"/>
				<path class="st2" d="M66.5,46.2c0.3,0,0.7,0.1,1,0.2c0.1-0.5,0.1-1.3,0-1.8c-0.4,0-0.7,0-1.1,0C66.4,44.7,66.5,45.8,66.5,46.2z"
					/>
				<path class="st2" d="M66.5,46.5c0.4,0,0.6,0.3,1,0.3c0,0.3,0,0.6,0,0.9c0,0.1-0.1,0.2-0.1,0.2c-0.3,0.1-0.7,0.2-1,0.2
					c0.1-0.2,0.2-0.6,0.2-0.9c0-0.1,0-0.1,0-0.2c0,0-0.1-0.1-0.1-0.1C66.4,46.9,66.5,46.6,66.5,46.5"/>
				<path class="st2" d="M61.4,48c0.3,0.2,0.5,0.4,0.9,0.4c-0.5,0.3-0.9,0.7-1.3,1.1c-0.2,0.2-0.5,0.5-0.8,0.4c-0.1,0-0.1,0-0.1-0.1
					c-0.1-0.1-0.5-0.5-0.5-0.6c0.5,0,0.9-0.3,1.3-0.7C60.9,48.5,61.2,48.2,61.4,48"/>
				<path class="st2" d="M62.5,48.6c0.3,0.1,0.5,0.1,0.8,0.1c-0.4,0.4-0.6,0.9-1,1.3c-0.1,0.1-0.5,0.2-0.6,0.2c-0.3,0-0.8-0.2-1-0.3
					c0.4-0.2,0.7-0.4,1-0.7C61.9,49.1,62.5,48.7,62.5,48.6"/>
				<path class="st2" d="M63.5,48.7c0.3,0,0.6,0,0.9,0c-0.2,0.5-0.2,1.2-0.7,1.6c-0.4,0.1-0.9,0.1-1.3,0.1
					C63.1,49.9,63.4,49.3,63.5,48.7"/>
				<path class="st2" d="M65.8,48.7c-0.2,0.4,0.2,0.8,0.1,1.3c-0.5,0.3-1.4,0.3-1.7,0.3c0.5-0.4,0.4-1,0.5-1.5
					C64.6,48.8,65.4,48.7,65.8,48.7z"/>
				<path class="st2" d="M66.8,48.5c0.2,0.5,0.4,0.8,0.6,1.2c-0.4,0.1-0.7,0.2-1.2,0.3c0-0.5,0-0.8-0.1-1.3
					C66.1,48.7,66.6,48.6,66.8,48.5z"/>
				<path class="st2" d="M67.1,48.4c0.2-0.1,0.3-0.1,0.5-0.3c0.5,0.4,1.1,0.9,1.4,1.5c-0.4,0-0.8,0.1-1.2,0.1
					C67.7,49.1,67.4,48.8,67.1,48.4z"/>
			</g>
			<path class="st2" d="M76.8,39.3c-0.1-0.4-0.3-0.7-0.5-1.1c0,0-0.3-0.5-1-0.3c-0.8,0.3-0.3,1.7-0.1,2.1c0.1,0.3,0.3,0.6,0.6,0.6
				c0.1,0,0.2,0,0.2-0.1c0-0.1,0-0.1,0-0.2c0-0.2-0.1-0.3-0.2-0.5c-0.1-0.4-0.3-1,0-1c0.1,0,0.3,0.7,0.4,0.9s0.4,0.2,0.6,0.2
				C77,40,76.8,39.5,76.8,39.3z"/>
			<path class="st2" d="M75.8,41c-0.5,0-1.1-0.1-1.7-0.1c-0.4,0-0.9,0.1-1.2,0.3c-0.1,0-0.1,0.1-0.1,0.1c-0.1,0.2,0,0.3,0.2,0.5
				c0.5,0.4,1.1,0.5,1.8,0.5c0.3,0,0.6,0,0.9,0c0.1,0,0.3,0,0.3-0.2c0-0.1,0-0.1,0-0.1c-0.2-0.2-0.5-0.3-0.7-0.3c-0.4,0-0.7,0-1.1,0
				c-0.1,0-0.2,0-0.2-0.1c0-0.1,0-0.1,0.1-0.1c0.1-0.1,0.3-0.1,0.5,0c0.5,0.1,1,0.2,1.5,0C76,41.3,76,41,75.8,41z"/>
			<path class="st2" d="M74,43c-0.3,0.1-0.6,0.1-0.8,0.2c-0.3,0.1-0.6,0.2-0.9,0.3c-0.1,0-0.2,0.1-0.2,0.1c-0.1,0.1-0.2,0.3-0.2,0.4
				c0,0.1,0,0.5,0.5,0.5c0.3,0,0.6,0.1,0.9,0.1c0.4,0,0.9,0,1.3,0c0.3,0,0.5,0,0.8,0c0.1,0,0.2,0,0.3-0.1c0.1-0.1,0.1-0.2,0.1-0.3
				c0-0.1-0.1-0.1-0.2-0.1c-0.5-0.2-1.2-0.3-1.7-0.2c0-0.1,0-0.2,0.1-0.2c0.1-0.1,0.2-0.1,0.3-0.1c0.3,0,0.5,0,0.8,0
				c0.3,0,0.7-0.1,0.9-0.3C75.9,43.2,75.9,42.6,74,43z"/>
			<path class="st2" d="M75.4,45.1c-0.3-0.2-1.7,0-2.3,0.5c-0.1,0.1-0.1,0.1-0.2,0.2c-0.1,0.1-0.2,0.1-0.4,0.1
				c-0.4,0.1-0.6-0.3-0.9-0.1c-0.5,0.2-0.4,1,0.2,1.2c0.2,0.1,0.5,0.1,0.7,0.1c0.2,0,0.4,0.1,0.6,0.2c0.8,0.2,1.8,0.1,2.4-0.4
				c0.2-0.1,0.3-0.3,0.3-0.4c0-0.2,0-0.3-0.1-0.4c-0.1-0.1-0.3-0.1-0.4-0.1c-0.5,0-1.3,0.5-1.8,0.9c-0.1-0.7,1.4-1.2,1.6-1.2
				c0.2,0,0.3,0,0.5-0.1C75.6,45.4,75.4,45.1,75.4,45.1z"/>
			<path class="st2" d="M73.5,47.9c-0.7,0.1-1.1,0.1-1.8,0.3c-0.1,0-0.3,0.1-0.4,0.2c-0.1,0.1-0.1,0.2-0.2,0.3
				c-0.1,0.4,0.1,0.7,0.4,1c0.3,0.2,0.7,0.4,1,0.4c0.4,0,0.7,0,1.1,0c0.1,0,0.1,0,0.1-0.1c0,0,0-0.1,0-0.1c0-0.1,0-0.3,0-0.4
				c0-0.1,0-0.1-0.1-0.2c0,0-0.1-0.1-0.2-0.1c-0.3,0-0.7,0-1,0c0-0.2,0.1-0.3,0.3-0.4c0.2-0.1,0.3-0.1,0.5-0.1
				c0.5,0.1,0.6-0.4,0.5-0.6C73.8,48,73.7,47.9,73.5,47.9"/>
			<path class="st2" d="M76,48.1C75.8,48,75.6,48,75.5,48c-0.5,0-0.8,0-1.2,0c0,0,0,0-0.1,0c0,0,0,0,0,0.1c-0.1,0.3-0.1,0.7,0,1.1
				c0,0.1,0.1,0.3,0.2,0.3c0.1,0,0.2,0,0.2-0.1c0.3-0.1,0.5-0.2,0.8-0.3c0.1,0,0.3-0.1,0.4-0.2c0.1-0.1,0.3-0.2,0.3-0.3
				C76.1,48.4,76.1,48.2,76,48.1"/>
			<path class="st2" d="M76.2,48.9c-0.2-0.1-0.7,0.4-0.9,0.5c-0.1,0.1-0.3,0.2-0.4,0.2c-0.1,0.1-0.3,0.2-0.3,0.4
				c0,0,0.1,0.1,0.1,0.1c0.2,0,0.5,0,0.7,0c0.3,0,0.6-0.1,0.9-0.2c0.1,0,0.1,0,0.2-0.1c0.1-0.1,0.1-0.2,0.1-0.3c0-0.2,0-0.4-0.1-0.5
				C76.4,49,76.3,48.9,76.2,48.9z"/>
			<path class="st2" d="M78.7,42.4c-0.2,0-0.1-0.5-0.2-0.7c-0.1-0.4-0.2-0.7-0.5-0.8c-0.3-0.2-0.1-0.7,0.1-1
				c-0.3,0.2-0.6,0.3-0.8,0.5c-0.2,0.2-0.5,0.4-0.8,0.3c0,0.2,0.1,0.5,0.1,0.7c0,0,0,0.1,0,0.1c0,0,0.1,0,0.2,0c0.2,0,0.4,0,0.5,0
				c0.1,0.2,0,0.4-0.2,0.5s-0.4,0.1-0.5,0.2c-0.1,0.1-0.2,0.2-0.3,0.4c0,0.2,0,0.4,0.1,0.5c0.1,0.1,0.3-0.1,0.4-0.1
				C77.3,43.2,78.6,42.7,78.7,42.4z"/>
			<path class="st2" d="M78.6,39.2c-0.2-0.3-0.3-0.7-0.5-1C78,38.1,78,38,77.9,37.9s-0.2-0.2-0.4-0.2c-0.2,0-0.3,0.1-0.4,0.3
				c0,0-0.2,0.7-0.2,0.9c0,0.1,0.1,0.2,0.1,0.3c0.1,0.2,0.2,0.4,0.3,0.6c0.1-0.2,0.2-0.3,0.4-0.4C77.8,39.3,78.4,39.2,78.6,39.2"/>
			<path class="st2" d="M78.9,37.8c0,0.4,0,0.6,0,1.1c0,0.1-0.1,0.4,0,0.5c0.1,0.1,0.4,0,0.5,0c0.3,0,1.2,0.1,1.4,0.2
				c0.1-0.4-0.1-0.8-0.4-1c-0.3-0.3-0.6-0.5-0.9-0.6C79.3,37.9,79.1,37.8,78.9,37.8"/>
			<path class="st2" d="M78.9,44.3c-0.6,0-1.2,0.2-1.7,0.5c0,0-0.1,0-0.1,0.1c0,0,0,0.1,0,0.1c0,0.1-0.1,0.1-0.1,0.2
				c-0.3-0.3-0.3-0.8-0.4-1.3c0-0.1,0-0.1,0-0.2c0,0,0.1-0.1,0.1-0.1c0.3-0.2,0.7-0.2,1-0.2c0.3,0,0.5-0.1,0.8-0.3
				c0.1-0.1,0.2-0.1,0.3-0.1C78.7,43,78.5,43.9,78.9,44.3z"/>
			<path class="st2" d="M78.3,44.7c-0.6,0-1.2,0.3-1.6,0.7c-0.1,0.1-0.3,0.3-0.3,0.7c0,0.1,0,0.3,0,0.4c0,0,0,0.1,0,0.1
				c0,0,0.1,0.1,0.1,0.1c0.2,0,0.3,0.1,0.5,0.1c0.1,0,0.1,0,0.2,0c0.1,0,0.1-0.1,0.1-0.2c0.1-0.2,0.1-0.3,0.3-0.5
				c0-0.1,0.1-0.1,0.1-0.1c0.1-0.1,0.2-0.1,0.3-0.1c0.2,0,0.6,0.1,0.7,0.2c0-0.4,0.4-1.3,0.1-1.4C78.8,44.7,78.3,44.7,78.3,44.7z"/>
			<path class="st2" d="M78.8,47c-0.3-0.2-0.7-0.3-1-0.1c-0.1,0-0.1,0.1-0.1,0.1c-0.1,0.1-0.1,0.3-0.1,0.4c0,0.1-0.1,0.3-0.2,0.4
				c-0.3,0.1-0.5-0.4-0.8-0.3c-0.2,0.1-0.2,0.3-0.2,0.4c0.1,0.4,0.3,0.7,0.5,1c0.2,0.2,0.4,0.5,0.5,0.7c0.2,0.2,0.4,0.4,0.6,0.3
				c0.1,0,0.2-0.1,0.3-0.2c0.2-0.3,0.2-0.7,0.1-1c0-0.1,0-0.2,0-0.2c0-0.1,0.1-0.1,0.2-0.1c0.1,0,0.2,0.1,0.2,0
				C79.1,48.1,79.1,47.3,78.8,47L78.8,47z"/>
			<path class="st2" d="M81.2,40c0.6,1.1-0.4,2.1-0.9,2.6c-0.2,0.2-0.4,0.5-0.3,0.7c0.1,0.2,0.4,0.3,0.6,0.3c0.6,0.1,1.2,0.1,1.8,0
				c0.1,0,0.1,0,0.2-0.1c0.1-0.1,0.1-0.2,0.1-0.3c0-0.2-0.1-0.5-0.3-0.6c-0.1,0-0.1-0.1-0.1-0.1c0-0.1,0.2-0.4,0.4-0.5
				c0.4-0.2,1-0.1,1.2,0.1c0.2,0.1,0.2,1,0.2,1c0,0,0.7-0.6,0.9-0.9c0.3-0.8,0.5-2.2-1-2.3C83.1,39.9,82,39.9,81.2,40"/>
			<path class="st2" d="M80.5,40.3c0-0.1,0-0.2-0.1-0.3c-0.1-0.1-0.2-0.1-0.3-0.2c-0.2-0.1-0.5-0.1-0.7-0.1c-0.2,0-0.5,0-0.7,0.1
				s-0.4,0.3-0.4,0.5c0,0.3,0.1,0.5,0.2,0.8c0,0.2,0.1,0.3,0.2,0.4c0.1,0,0.1,0.1,0.2,0.1c0.3,0.1,0.7,0.1,1-0.1
				c0.2-0.1,0.5-0.4,0.4-0.6c0-0.2-0.2-0.3-0.4-0.3c-0.2,0-0.4,0-0.5,0c-0.1,0-0.2,0.1-0.3,0.1c-0.1,0-0.2-0.1-0.3-0.2
				c0-0.1,0-0.2,0.1-0.3c0.1-0.1,0.2-0.1,0.3-0.1c0.3,0,0.6,0.1,0.8,0.2c0.1,0,0.2,0.1,0.2,0.1C80.5,40.5,80.6,40.4,80.5,40.3"/>
			<path class="st2" d="M79.9,41.8c-0.3,0.1-0.5,0.2-0.7,0.5C79,42.5,79,42.8,79,43c0,0.2,0,0.4,0,0.5c0,0.1,0.1,0.3,0.2,0.5
				c0.2,0.2,0.5,0.3,0.7,0.2c0.1-0.1,0.1-0.3,0.1-0.4c-0.1-0.3-0.5-0.5-0.6-0.8c-0.1-0.2,0-0.4,0.1-0.6c0.1-0.2,0.3-0.3,0.5-0.3
				c0.1,0,0.3-0.1,0.3-0.2C80.2,41.8,80.1,41.7,79.9,41.8z"/>
		</g>
	</g>
	<g>
		<path class="st2" d="M7,79.9c-0.1-0.3-0.1-0.6,0-1c0.1-0.3,0.3-0.5,0.7-0.7c0.3-0.1,0.6-0.1,1,0c0.3,0.1,0.5,0.3,0.7,0.7
			c0.1,0.3,0.1,0.6,0,1c-0.1,0.3-0.3,0.5-0.7,0.7c-0.3,0.1-0.6,0.1-1,0C7.4,80.5,7.1,80.3,7,79.9z"/>
		<path class="st2" d="M1.5,70.2l2.2-0.7l0,0.1c-0.6,0.4-1,0.8-1.2,1.2c-0.2,0.4-0.2,0.9-0.1,1.4c0.1,0.4,0.3,0.8,0.6,1.1
			c0.3,0.3,0.7,0.5,1.3,0.5c0.5,0.1,1.2,0,1.9-0.2c0.6-0.2,1.1-0.4,1.5-0.7C8,72.8,8.3,72.4,8.4,72c0.1-0.4,0.1-0.9,0-1.4
			c-0.1-0.4-0.3-0.8-0.6-1c-0.3-0.3-0.7-0.5-1.4-0.8l0.1-0.2c0.7,0.2,1.2,0.4,1.6,0.8c0.4,0.4,0.7,0.8,0.8,1.4
			c0.3,1.1,0.1,2-0.5,2.8c-0.5,0.6-1.1,1-1.9,1.2c-0.6,0.2-1.3,0.2-1.9,0C3.9,74.7,3.4,74.5,3,74c-0.4-0.4-0.7-0.9-0.9-1.6
			c-0.1-0.5-0.1-1,0-1.5c0-0.2,0-0.3,0-0.3c0-0.1-0.1-0.2-0.2-0.2c-0.1-0.1-0.2-0.1-0.4-0.1L1.5,70.2z"/>
		<path class="st2" d="M0.7,65.2c-0.1-0.9,0.1-1.7,0.7-2.4c0.6-0.7,1.4-1.1,2.3-1.3c1-0.1,1.9,0.1,2.6,0.7c0.7,0.6,1.2,1.3,1.3,2.2
			c0.1,0.9-0.1,1.7-0.7,2.4c-0.6,0.7-1.4,1.1-2.4,1.2c-1.1,0.1-2-0.1-2.7-0.8C1.2,66.8,0.8,66.1,0.7,65.2z M1.1,65.3
			c0.1,0.6,0.4,1,0.8,1.4C2.5,67,3.4,67.1,4.4,67c1.1-0.1,1.9-0.5,2.4-1c0.4-0.4,0.6-0.9,0.5-1.5C7.3,63.9,7,63.4,6.4,63
			c-0.5-0.3-1.3-0.5-2.4-0.3c-1.1,0.1-2,0.5-2.5,1C1.2,64.1,1,64.6,1.1,65.3z"/>
		<path class="st2" d="M5.3,55.2l0-0.2l1.8,0.6l0,5.2l-0.2,0l0-0.3c0-0.3-0.1-0.5-0.3-0.6c-0.1-0.1-0.3-0.1-0.7-0.1l-4.3,0
			c-0.4,0-0.7,0-0.8,0.1c-0.1,0.1-0.2,0.3-0.2,0.6l0,0.3l-0.2,0l0-3l0.2,0c0,0.4,0,0.6,0.1,0.8c0.1,0.1,0.2,0.2,0.3,0.3
			c0.1,0.1,0.4,0.1,0.8,0.1l4.2,0c0.3,0,0.5,0,0.6-0.1c0.1,0,0.1-0.1,0.2-0.2c0-0.1,0.1-0.3,0.1-0.8l0-0.5c0-0.5,0-0.9-0.1-1.1
			c-0.1-0.2-0.2-0.4-0.4-0.6C6.1,55.5,5.7,55.3,5.3,55.2z"/>
		<path class="st2" d="M1.1,52.1l2.6,0.3L4,51c0-0.4,0-0.6-0.1-0.8c-0.1-0.2-0.4-0.3-0.8-0.4l0-0.2l2.3,0.3l0,0.2
			c-0.3,0-0.5,0-0.6,0.1c-0.1,0-0.2,0.1-0.3,0.3c-0.1,0.1-0.1,0.3-0.2,0.6l-0.2,1.5l2.2,0.3c0.3,0,0.5,0,0.5,0
			c0.1,0,0.1-0.1,0.2-0.1c0-0.1,0.1-0.2,0.1-0.4l0.1-1.1c0-0.4,0.1-0.7,0-0.8c0-0.2-0.1-0.4-0.2-0.5c-0.2-0.2-0.5-0.5-0.8-0.7l0-0.2
			l1.6,0.8l-0.7,5.1l-0.2,0l0-0.2c0-0.2,0-0.3-0.1-0.5c0-0.1-0.1-0.2-0.2-0.2c-0.1-0.1-0.3-0.1-0.6-0.1l-4.3-0.5
			c-0.4-0.1-0.7,0-0.8,0c-0.1,0.1-0.2,0.3-0.3,0.6l0,0.2l-0.2,0l0.7-5.1l1.5,0.1l0,0.2c-0.4,0-0.6,0.1-0.8,0.1
			c-0.1,0.1-0.3,0.2-0.3,0.3c-0.1,0.1-0.1,0.4-0.2,0.7L1.1,52.1z"/>
		<path class="st2" d="M2.8,41.2l2.1,0.4l0,0.2c-0.6,0-1,0.2-1.3,0.4c-0.5,0.3-0.8,0.7-1,1.3c-0.2,0.8-0.1,1.5,0.5,2.1
			c0.5,0.5,1.1,0.9,1.8,1.1c0.6,0.2,1.2,0.2,1.8,0.1c0.6-0.1,1-0.3,1.4-0.6c0.3-0.3,0.6-0.7,0.7-1.1c0.1-0.2,0.1-0.5,0.1-0.7
			c0-0.2,0-0.5-0.1-0.7l-1.9-0.5C6.5,43,6.3,43,6.2,43c-0.1,0-0.2,0.1-0.3,0.2c-0.1,0.1-0.2,0.3-0.2,0.5l-0.2,0l0.7-2.5l0.2,0l0,0.1
			c-0.1,0.2,0,0.4,0.1,0.6c0.1,0.1,0.3,0.2,0.7,0.3l2,0.5c0.1,0.4,0.2,0.8,0.2,1.2c0,0.4-0.1,0.8-0.2,1.2c-0.3,1.3-1,2.1-2,2.5
			C6.4,48,5.6,48,4.8,47.8c-0.6-0.2-1.1-0.4-1.5-0.8c-0.5-0.5-0.9-1.1-1.1-1.7c-0.2-0.5-0.1-1.1,0-1.8c0.1-0.2,0.1-0.4,0.2-0.6
			c0.1-0.2,0.2-0.4,0.5-0.8c0.1-0.2,0.2-0.3,0.2-0.3c0-0.1,0-0.1,0-0.2c0-0.1-0.1-0.1-0.3-0.2L2.8,41.2z"/>
		<path class="st2" d="M10.7,39.1l0.2,0.1l-1,2.7l-0.2-0.1l0.1-0.2c0.1-0.3,0.1-0.5,0-0.7c-0.1-0.1-0.3-0.2-0.7-0.4L5,39.1
			c-0.3-0.1-0.5-0.2-0.7-0.2c-0.1,0-0.2,0-0.3,0.1c-0.1,0.1-0.2,0.2-0.3,0.4l-0.1,0.2l-0.2-0.1l1-2.7l0.2,0.1l-0.1,0.2
			c-0.1,0.3-0.1,0.5,0,0.6C4.8,37.9,5,38,5.4,38.2l4.1,1.5c0.3,0.1,0.5,0.2,0.7,0.2c0.1,0,0.2,0,0.3-0.1c0.1-0.1,0.2-0.2,0.3-0.4
			L10.7,39.1z"/>
		<path class="st2" d="M6.3,32.7c0.4-0.8,1-1.3,1.9-1.6c0.9-0.3,1.8-0.2,2.6,0.3c0.9,0.5,1.5,1.1,1.8,2c0.3,0.9,0.3,1.7-0.1,2.5
			c-0.4,0.8-1.1,1.4-1.9,1.6c-0.9,0.3-1.8,0.2-2.7-0.3c-1-0.5-1.6-1.2-1.8-2.1C5.9,34.3,5.9,33.5,6.3,32.7z M6.6,32.9
			c-0.3,0.5-0.3,1.1,0,1.6c0.3,0.7,0.9,1.2,1.9,1.7c1,0.5,1.8,0.7,2.6,0.5c0.6-0.1,1-0.4,1.2-1c0.3-0.6,0.3-1.1,0-1.7
			c-0.3-0.6-0.9-1.1-1.8-1.6c-1-0.5-1.9-0.7-2.6-0.5C7.3,32,6.9,32.4,6.6,32.9z"/>
		<path class="st2" d="M15.4,30.5l-0.1-0.1l0.2-0.2c0.2-0.2,0.2-0.4,0.1-0.6c0-0.1-0.2-0.3-0.5-0.5l-3.5-2.6
			C11.2,26.1,11,26,10.9,26c-0.2,0-0.4,0.1-0.5,0.3l-0.2,0.2L10,26.4l1.7-2.2c0.6-0.8,1.2-1.3,1.7-1.6c0.5-0.3,1.1-0.4,1.7-0.3
			c0.6,0.1,1.2,0.3,1.8,0.7c0.7,0.6,1.2,1.3,1.3,2.1c0.2,0.9-0.1,1.9-0.9,3L15.4,30.5z M16.2,28.7c0.3-0.3,0.6-0.5,0.7-0.8
			c0.5-0.6,0.6-1.3,0.5-2c-0.1-0.7-0.5-1.4-1.3-1.9c-0.7-0.6-1.5-0.8-2.2-0.7c-0.7,0.1-1.3,0.4-1.8,1.1c-0.2,0.2-0.3,0.5-0.5,0.9
			L16.2,28.7z"/>
		<path class="st2" d="M16.6,19l1.9,1.9l1-1c0.3-0.3,0.4-0.5,0.4-0.7c0-0.2-0.1-0.5-0.4-0.8l0.1-0.1l1.7,1.6L21.2,20
			c-0.3-0.2-0.4-0.3-0.5-0.3c-0.1,0-0.3,0-0.4,0c-0.1,0.1-0.3,0.2-0.5,0.4l-1,1l1.6,1.6c0.2,0.2,0.3,0.3,0.4,0.4c0.1,0,0.1,0,0.2,0
			c0.1,0,0.2-0.1,0.3-0.2L22,22c0.3-0.3,0.4-0.5,0.5-0.6c0.1-0.2,0.1-0.3,0.1-0.6c0-0.3-0.1-0.7-0.2-1.1l0.1-0.1l0.8,1.6l-3.6,3.7
			l-0.1-0.1l0.2-0.2c0.1-0.1,0.2-0.2,0.2-0.4c0-0.1,0-0.2,0-0.3c0-0.1-0.2-0.3-0.4-0.5l-3.1-3.1c-0.3-0.3-0.5-0.5-0.7-0.5
			c-0.2,0-0.4,0.1-0.6,0.3l-0.2,0.2L15,20.1l3.6-3.7l1.1,1l-0.1,0.1c-0.3-0.2-0.5-0.3-0.7-0.3c-0.2,0-0.3,0-0.5,0.1
			c-0.1,0.1-0.3,0.2-0.5,0.4L16.6,19z"/>
		<path class="st2" d="M26.7,10l1.4,1.8L28,11.8c-0.6-0.4-1.1-0.7-1.6-0.7c-0.5,0-0.9,0.1-1.4,0.4c-0.4,0.3-0.6,0.6-0.8,1
			c-0.2,0.4-0.2,0.9-0.1,1.4c0.1,0.5,0.4,1.1,0.8,1.7c0.4,0.5,0.7,0.9,1.2,1.1c0.4,0.3,0.9,0.4,1.3,0.3c0.5,0,0.9-0.2,1.3-0.5
			c0.4-0.3,0.6-0.6,0.8-0.9c0.2-0.3,0.2-0.9,0.3-1.5l0.2,0c0.1,0.7,0,1.3-0.2,1.8c-0.2,0.5-0.6,0.9-1.1,1.3
			c-0.9,0.6-1.8,0.8-2.8,0.5c-0.7-0.2-1.3-0.7-1.8-1.4c-0.4-0.5-0.6-1.1-0.7-1.8c-0.1-0.6,0-1.2,0.3-1.8c0.3-0.6,0.6-1,1.1-1.4
			c0.4-0.3,0.9-0.5,1.4-0.5c0.2,0,0.3,0,0.3-0.1c0.1-0.1,0.1-0.1,0.1-0.2c0-0.1,0-0.3-0.1-0.4L26.7,10z"/>
		<path class="st2" d="M33.7,13.6l0.1,0.2l-2.5,1.4l-0.1-0.2l0.2-0.1c0.2-0.1,0.4-0.3,0.4-0.5c0-0.1-0.1-0.4-0.3-0.7l-2.2-3.8
			c-0.2-0.3-0.3-0.5-0.4-0.6c-0.1-0.1-0.2-0.1-0.3-0.1c-0.2,0-0.3,0-0.5,0.1l-0.2,0.1L28,9.4L30.5,8l0.1,0.2l-0.2,0.1
			C30.1,8.4,30,8.5,30,8.7c0,0.1,0.1,0.4,0.3,0.7l2.2,3.8c0.2,0.3,0.3,0.5,0.4,0.6c0.1,0.1,0.2,0.1,0.3,0.1c0.2,0,0.3,0,0.4-0.1
			L33.7,13.6z"/>
		<path class="st2" d="M33.1,7l1.1,2.4l1.3-0.6c0.3-0.2,0.6-0.3,0.6-0.5c0.1-0.2,0.1-0.5-0.1-0.8l0.2-0.1l1,2.1l-0.2,0.1
			c-0.2-0.3-0.3-0.5-0.4-0.5C36.6,9,36.5,9,36.3,9C36.2,9,36,9,35.7,9.2l-1.3,0.6l0.9,2c0.1,0.3,0.2,0.4,0.3,0.5
			c0,0,0.1,0.1,0.2,0.1c0.1,0,0.2,0,0.4-0.1l1-0.5c0.3-0.2,0.6-0.3,0.7-0.4c0.1-0.1,0.2-0.3,0.3-0.5c0.1-0.3,0.2-0.6,0.2-1.1
			l0.2-0.1l0.2,1.8L34,13.6L34,13.4l0.2-0.1c0.1-0.1,0.3-0.2,0.4-0.3c0.1-0.1,0.1-0.2,0.1-0.3c0-0.1-0.1-0.3-0.2-0.6l-1.8-4
			c-0.2-0.4-0.3-0.6-0.4-0.7c-0.2-0.1-0.4,0-0.6,0.1l-0.2,0.1l-0.1-0.2L36,5.3l0.7,1.3l-0.2,0.1c-0.2-0.3-0.4-0.5-0.5-0.6
			C35.8,6.1,35.7,6,35.5,6c-0.1,0-0.4,0.1-0.7,0.2L33.1,7z"/>
		<path class="st2" d="M37.2,4.8l1.7-0.5l5.4,3.6l-1.1-3.7c-0.1-0.4-0.2-0.6-0.4-0.7c-0.2-0.1-0.4-0.1-0.6,0L42,3.5l-0.1-0.2
			l2.2-0.7l0.1,0.2L44,2.9c-0.3,0.1-0.4,0.2-0.5,0.4c0,0.1,0,0.4,0.1,0.7l1.7,5.4l-0.2,0.1l-5.8-3.9l1.2,4c0.1,0.4,0.2,0.6,0.4,0.7
			c0.2,0.1,0.4,0.1,0.6,0l0.2-0.1l0.1,0.2l-2.2,0.7l-0.1-0.2l0.2-0.1c0.3-0.1,0.4-0.2,0.5-0.4c0-0.1,0-0.4-0.1-0.7l-1.4-4.5
			c-0.3-0.2-0.4-0.3-0.6-0.3c-0.1,0-0.3-0.1-0.5-0.1c-0.1,0-0.2,0-0.4,0.1L37.2,4.8z"/>
		<path class="st2" d="M51,1.3l0.5,2.2l-0.2,0c-0.3-0.6-0.7-1.1-1.1-1.3S49.4,1.9,48.8,2c-0.4,0.1-0.8,0.2-1.1,0.5
			c-0.3,0.3-0.5,0.7-0.7,1.2c-0.1,0.5-0.1,1.1,0,1.9c0.1,0.6,0.3,1.1,0.5,1.5c0.3,0.4,0.6,0.7,1,0.9C49,8.2,49.5,8.2,50,8.1
			c0.4-0.1,0.8-0.2,1.1-0.5C51.4,7.4,51.7,7,52,6.4l0.2,0.1c-0.2,0.6-0.6,1.1-0.9,1.5c-0.4,0.3-0.9,0.6-1.5,0.7
			c-1.1,0.2-2-0.1-2.8-0.8c-0.5-0.5-0.9-1.2-1-2c-0.1-0.7-0.1-1.3,0.1-1.9c0.2-0.6,0.5-1.1,1-1.5c0.5-0.4,1-0.6,1.6-0.7
			c0.5-0.1,1,0,1.5,0.1c0.1,0,0.3,0.1,0.3,0.1c0.1,0,0.2-0.1,0.2-0.1c0.1-0.1,0.1-0.2,0.1-0.4L51,1.3z"/>
		<path class="st2" d="M55.7,7.7l0,0.2L52.9,8l0-0.2l0.2,0c0.3,0,0.5-0.1,0.6-0.3c0.1-0.1,0.1-0.4,0.1-0.8l-0.3-4.3
			c0-0.3-0.1-0.6-0.1-0.7c0-0.1-0.1-0.1-0.2-0.2c-0.2-0.1-0.3-0.1-0.5-0.1l-0.2,0l0-0.2l2.9-0.2l0,0.2l-0.2,0
			c-0.3,0-0.5,0.1-0.6,0.3c-0.1,0.1-0.1,0.4-0.1,0.8l0.3,4.3c0,0.3,0.1,0.6,0.1,0.7c0,0.1,0.1,0.1,0.2,0.2c0.1,0.1,0.3,0.1,0.5,0.1
			L55.7,7.7z"/>
		<path class="st2" d="M60.6,5.7L58,5.6l-0.5,1c-0.1,0.3-0.2,0.4-0.2,0.6c0,0.1,0,0.2,0.1,0.3c0.1,0.1,0.3,0.1,0.6,0.2l0,0.2
			l-2.1-0.1l0-0.2c0.3,0,0.5-0.1,0.6-0.2c0.2-0.2,0.4-0.5,0.6-0.9L59.6,1l0.2,0l2.1,5.7c0.2,0.5,0.3,0.8,0.5,0.9
			c0.1,0.1,0.4,0.2,0.6,0.2L63,8l-2.6-0.1l0-0.2c0.3,0,0.4,0,0.5-0.1s0.1-0.2,0.2-0.3c0-0.1-0.1-0.4-0.2-0.7L60.6,5.7z M60.4,5.3
			l-1-2.8l-1.3,2.7L60.4,5.3z"/>
		<path class="st2" d="M68.6,2l-0.4,2.3l-0.2,0c0-0.4,0-0.8-0.1-1.1c-0.1-0.3-0.3-0.5-0.5-0.7c-0.3-0.2-0.5-0.3-0.8-0.4
			c-0.3-0.1-0.6,0-0.9,0.2c-0.3,0.2-0.4,0.4-0.4,0.7c0,0.2,0,0.4,0.1,0.6c0.2,0.3,0.6,0.7,1.3,1.2c0.6,0.4,0.9,0.8,1.1,1
			c0.2,0.2,0.3,0.5,0.4,0.7c0.1,0.3,0.1,0.5,0.1,0.8c-0.1,0.5-0.3,0.9-0.8,1.2c-0.4,0.3-1,0.4-1.6,0.3c-0.2,0-0.4-0.1-0.5-0.1
			c-0.1,0-0.3-0.1-0.6-0.3C64.4,8.1,64.2,8,64.1,8c-0.1,0-0.1,0-0.2,0c-0.1,0-0.1,0.1-0.2,0.3l-0.2,0L64,6l0.2,0
			c0,0.5,0.1,0.9,0.2,1.1c0.1,0.3,0.3,0.5,0.6,0.7c0.3,0.2,0.6,0.3,0.9,0.4c0.4,0.1,0.7,0,1-0.2c0.3-0.2,0.4-0.4,0.5-0.7
			c0-0.2,0-0.3-0.1-0.5c-0.1-0.2-0.2-0.4-0.3-0.5C66.8,6.2,66.5,6,66,5.5c-0.5-0.4-0.9-0.7-1.1-1c-0.2-0.2-0.4-0.5-0.4-0.7
			c-0.1-0.2-0.1-0.5-0.1-0.8c0.1-0.5,0.3-0.9,0.7-1.1c0.4-0.3,0.9-0.4,1.5-0.3c0.4,0.1,0.7,0.2,1.1,0.4c0.2,0.1,0.3,0.2,0.4,0.2
			c0.1,0,0.2,0,0.2,0c0.1,0,0.1-0.1,0.2-0.3L68.6,2z"/>
		<path class="st2" d="M77.1,4.5l2.2,0.8l-0.1,0.2l-0.1,0c-0.1,0-0.2,0-0.4,0c-0.2,0-0.4,0.1-0.5,0.2C78,5.6,77.8,5.8,77.5,6
			l-2.4,1.9l-0.5,1.6c-0.1,0.4-0.2,0.6-0.1,0.8c0.1,0.2,0.2,0.3,0.5,0.4l0.2,0.1l-0.1,0.2L72.4,10l0.1-0.2l0.2,0.1
			C73,10,73.2,10,73.4,9.9c0.1-0.1,0.2-0.3,0.3-0.6l0.5-1.5l-0.8-3.3c-0.1-0.4-0.2-0.6-0.2-0.7c0-0.1-0.2-0.2-0.4-0.4
			c-0.1-0.1-0.1-0.1-0.3-0.1L72.6,3l2.7,0.9l-0.1,0.2l-0.1,0C75,4,74.8,4,74.7,4c-0.1,0-0.2,0.1-0.3,0.2c0,0.1,0,0.3,0.1,0.7
			l0.6,2.5L77,5.9c0.3-0.2,0.5-0.4,0.5-0.6c0-0.1,0-0.2,0-0.3c0-0.1-0.1-0.2-0.1-0.2c-0.1-0.1-0.2-0.1-0.4-0.2L77.1,4.5z"/>
		<path class="st2" d="M82.6,10.3l2.7,1.5l0.9-1.7c0.2-0.3,0.3-0.5,0.3-0.6c0-0.1,0-0.2-0.1-0.3c-0.1-0.1-0.2-0.2-0.3-0.3l-0.2-0.1
			L86,8.6l2.5,1.4l-0.1,0.2l-0.2-0.1C88.1,10,87.9,10,87.7,10c-0.1,0-0.2,0-0.3,0.1c-0.1,0.1-0.2,0.3-0.4,0.5L85,14.4
			c-0.2,0.3-0.3,0.5-0.3,0.6c0,0.1,0,0.2,0.1,0.3c0.1,0.1,0.2,0.2,0.3,0.3l0.2,0.1l-0.1,0.2l-2.5-1.4l0.1-0.2l0.2,0.1
			c0.2,0.1,0.5,0.2,0.6,0.1c0.1-0.1,0.3-0.3,0.5-0.6l1-1.8l-2.7-1.5l-1,1.8c-0.2,0.3-0.3,0.5-0.3,0.6c0,0.1,0,0.2,0.1,0.3
			c0.1,0.1,0.2,0.2,0.3,0.3l0.2,0.1l-0.1,0.2l-2.5-1.4l0.1-0.2l0.2,0.1c0.2,0.1,0.5,0.2,0.6,0.1c0.1-0.1,0.3-0.3,0.5-0.6l2.1-3.8
			c0.2-0.3,0.3-0.5,0.3-0.6c0-0.1,0-0.2-0.1-0.3c-0.1-0.1-0.2-0.2-0.3-0.3l-0.2-0.1l0.1-0.2L84.9,8l-0.1,0.2l-0.2-0.1
			C84.5,8,84.4,8,84.2,8c-0.1,0-0.2,0-0.3,0.1c-0.1,0.1-0.2,0.3-0.4,0.5L82.6,10.3z"/>
		<path class="st2" d="M93,13.6l0.1-0.1l1.9,1.4L94.9,15l-0.2-0.2c-0.2-0.2-0.4-0.2-0.7-0.1c-0.1,0-0.3,0.2-0.5,0.5l-1.6,2.2
			c-0.4,0.5-0.8,0.9-1.1,1.1c-0.3,0.2-0.7,0.3-1.2,0.3c-0.5,0-1-0.2-1.5-0.6c-0.6-0.4-0.9-0.9-1.1-1.3c-0.1-0.4-0.2-0.9,0-1.3
			c0.1-0.3,0.4-0.8,0.9-1.4l1.6-2.1c0.2-0.3,0.4-0.6,0.4-0.8c0-0.2-0.1-0.3-0.3-0.5l-0.2-0.2l0.1-0.1l2.3,1.8l-0.1,0.1l-0.2-0.2
			c-0.2-0.2-0.4-0.2-0.6-0.2c-0.1,0-0.3,0.2-0.5,0.5L88.4,15c-0.2,0.2-0.3,0.5-0.5,0.8c-0.2,0.3-0.3,0.6-0.3,0.8
			c0,0.2,0,0.5,0.2,0.7c0.1,0.2,0.3,0.5,0.6,0.7c0.3,0.3,0.7,0.4,1.1,0.5c0.4,0.1,0.7,0,1-0.2c0.3-0.2,0.6-0.5,1.1-1.1l1.6-2.2
			c0.3-0.3,0.4-0.6,0.4-0.7c0-0.2-0.1-0.4-0.3-0.5L93,13.6z"/>
		<path class="st2" d="M93.8,23.1l2.3-5.8l-3.2,3.1c-0.3,0.3-0.5,0.5-0.5,0.6c0,0.2,0.1,0.4,0.3,0.6l0.2,0.2l-0.1,0.1L91,20.2
			l0.1-0.1l0.2,0.2c0.2,0.2,0.4,0.3,0.6,0.3c0.1,0,0.3-0.2,0.6-0.4l3.2-3c0.2-0.2,0.3-0.4,0.4-0.5c0-0.1,0-0.2,0-0.4
			c0-0.1-0.2-0.3-0.3-0.5l0.1-0.1l1.3,1.4l-2.1,5.4l5.4-1.9l1.3,1.4l-0.1,0.1l-0.2-0.2c-0.2-0.2-0.4-0.3-0.6-0.3
			c-0.1,0-0.3,0.2-0.6,0.4l-3.2,3c-0.3,0.3-0.4,0.5-0.5,0.6c0,0.2,0.1,0.4,0.3,0.6l0.2,0.2L97,26.4l-2-2.1l0.1-0.1l0.2,0.2
			c0.2,0.2,0.4,0.3,0.6,0.3c0.1,0,0.3-0.2,0.6-0.4l3.2-3.1l-5.9,2.1L93.8,23.1z"/>
		<path class="st2" d="M101.5,29l-1.5-2.1l-1.1,0.2c-0.3,0.1-0.5,0.1-0.6,0.2c-0.1,0.1-0.1,0.2-0.1,0.3c0,0.1,0.1,0.3,0.2,0.6
			l-0.1,0.1L97,26.5l0.2-0.1c0.2,0.2,0.4,0.3,0.5,0.3c0.2,0,0.6,0,1.1-0.1l5.9-1.2l0.1,0.1l-3.2,5.1c-0.3,0.4-0.4,0.7-0.4,0.9
			c0,0.2,0,0.4,0.2,0.7l-0.2,0.1l-1.5-2.2l0.2-0.1c0.2,0.2,0.3,0.3,0.4,0.4c0.1,0,0.2,0,0.3,0c0.1-0.1,0.3-0.3,0.5-0.6L101.5,29z
			 M101.7,28.6l1.6-2.5l-2.9,0.6L101.7,28.6z"/>
		<path class="st2" d="M107,29.1l0.8,1.6l-2.6,5.9l3.5-1.7c0.4-0.2,0.6-0.3,0.6-0.5c0.1-0.2,0-0.4-0.1-0.6l-0.1-0.2l0.2-0.1l1.1,2.1
			l-0.2,0.1l-0.1-0.2c-0.1-0.3-0.3-0.4-0.5-0.4c-0.1,0-0.4,0.1-0.7,0.2l-5.1,2.6l-0.1-0.2l2.8-6.4l-3.7,1.9
			c-0.4,0.2-0.6,0.3-0.6,0.5c-0.1,0.2,0,0.4,0.1,0.6l0.1,0.2l-0.2,0.1l-1.1-2.1l0.2-0.1l0.1,0.2c0.1,0.3,0.3,0.4,0.5,0.4
			c0.1,0,0.4-0.1,0.7-0.2l4.2-2.1c0.1-0.3,0.2-0.5,0.2-0.6c0-0.1,0-0.3,0-0.5c0-0.1-0.1-0.2-0.2-0.4L107,29.1z"/>
		<path class="st2" d="M105.5,41.5l-0.2,0.1l-1-2.7l0.2-0.1l0.1,0.2c0.1,0.3,0.2,0.4,0.4,0.5c0.1,0,0.4,0,0.8-0.2l4.1-1.5
			c0.3-0.1,0.5-0.2,0.6-0.3c0.1-0.1,0.1-0.1,0.1-0.3c0-0.2,0-0.3-0.1-0.5l-0.1-0.2l0.2-0.1l1,2.7l-0.2,0.1l-0.1-0.2
			c-0.1-0.3-0.2-0.4-0.4-0.5c-0.1,0-0.4,0-0.8,0.2l-4.1,1.5c-0.3,0.1-0.5,0.2-0.6,0.3c-0.1,0.1-0.1,0.2-0.1,0.3c0,0.2,0,0.3,0,0.5
			L105.5,41.5z"/>
		<path class="st2" d="M105.5,41.8l0.2,0l0.1,0.2c0.1,0.3,0.2,0.4,0.4,0.5c0.1,0,0.4,0,0.7-0.1l4.2-1.1c0.4-0.1,0.6-0.2,0.7-0.3
			c0.1-0.2,0.1-0.4,0.1-0.6l-0.1-0.2l0.2,0l0.7,2.6c0.3,1,0.4,1.7,0.3,2.3c-0.1,0.6-0.3,1.1-0.8,1.5c-0.4,0.4-1,0.8-1.7,0.9
			c-0.9,0.2-1.7,0.2-2.5-0.2c-0.8-0.4-1.4-1.3-1.8-2.5L105.5,41.8z M106.4,43.5c0,0.4,0.1,0.8,0.1,1.1c0.2,0.7,0.6,1.3,1.3,1.6
			c0.7,0.3,1.4,0.4,2.3,0.2c0.9-0.2,1.5-0.7,1.9-1.3c0.4-0.6,0.5-1.3,0.3-2.1c-0.1-0.3-0.2-0.6-0.4-0.9L106.4,43.5z"/>
		<path class="st2" d="M110.1,52.8l-0.3-2.6l-1.1-0.3c-0.3-0.1-0.5-0.1-0.6-0.1c-0.1,0-0.2,0.1-0.2,0.2c-0.1,0.1-0.1,0.3-0.1,0.6
			l-0.2,0l-0.3-2.1l0.2,0c0.1,0.3,0.2,0.4,0.3,0.5c0.2,0.1,0.5,0.3,1,0.4l5.8,1.7l0,0.2l-5.3,3c-0.4,0.2-0.7,0.4-0.8,0.6
			c-0.1,0.2-0.2,0.4-0.1,0.7l-0.2,0l-0.3-2.6l0.2,0c0,0.3,0.1,0.4,0.2,0.5c0.1,0.1,0.2,0.1,0.3,0.1c0.1,0,0.4-0.1,0.7-0.3
			L110.1,52.8z M110.4,52.7l2.6-1.5l-2.8-0.8L110.4,52.7z"/>
		<path class="st2" d="M108.2,55.7l0.2,0l0,0.3c0,0.3,0.1,0.5,0.3,0.6c0.1,0.1,0.4,0.1,0.7,0.1l4.3,0.1c0.4,0,0.7,0,0.8-0.1
			c0.1-0.1,0.2-0.3,0.2-0.6l0-0.3l0.2,0l0,2.7c0,1-0.1,1.8-0.4,2.3c-0.2,0.5-0.6,0.9-1.2,1.2c-0.5,0.3-1.2,0.5-1.9,0.4
			c-0.9,0-1.7-0.3-2.3-0.9c-0.7-0.6-1-1.6-1-2.9L108.2,55.7z M108.6,57.6c-0.1,0.4-0.2,0.8-0.2,1.1c0,0.8,0.2,1.4,0.8,1.9
			c0.5,0.5,1.3,0.8,2.2,0.8c0.9,0,1.7-0.2,2.2-0.7c0.5-0.5,0.8-1.1,0.8-1.9c0-0.3,0-0.6-0.1-1L108.6,57.6z"/>
		<path class="st2" d="M114,65.7l-2.6-0.4l-0.2,1.5c-0.1,0.4,0,0.6,0.1,0.8c0.1,0.2,0.4,0.3,0.8,0.4l0,0.2l-2.3-0.3l0-0.2
			c0.3,0,0.5,0,0.6,0c0.1,0,0.2-0.1,0.3-0.2c0.1-0.1,0.1-0.3,0.2-0.6l0.2-1.5l-2.2-0.3c-0.3,0-0.5-0.1-0.5,0c-0.1,0-0.1,0.1-0.2,0.1
			c0,0.1-0.1,0.2-0.1,0.4l-0.2,1.1c-0.1,0.4-0.1,0.7,0,0.8c0,0.2,0.1,0.4,0.2,0.5c0.2,0.2,0.4,0.5,0.8,0.8l0,0.2l-1.6-0.8l0.8-5.1
			l0.2,0l0,0.2c0,0.2,0,0.3,0,0.5c0,0.1,0.1,0.2,0.2,0.2c0.1,0.1,0.3,0.1,0.6,0.2l4.3,0.6c0.4,0.1,0.7,0.1,0.8,0
			c0.1-0.1,0.2-0.3,0.3-0.6l0-0.2l0.2,0l-0.8,5.1l-1.5-0.1l0-0.2c0.4,0,0.6-0.1,0.8-0.1c0.1-0.1,0.3-0.2,0.4-0.3
			c0.1-0.1,0.1-0.4,0.2-0.7L114,65.7z"/>
		<path class="st2" d="M112.6,74.9l-2.2-0.6l0-0.2c0.4,0.1,0.8,0,1.1,0c0.3-0.1,0.6-0.2,0.8-0.5c0.2-0.2,0.4-0.5,0.5-0.8
			c0.1-0.3,0.1-0.6-0.1-0.9c-0.1-0.3-0.3-0.4-0.6-0.5c-0.2-0.1-0.4,0-0.6,0.1c-0.3,0.1-0.7,0.5-1.3,1.2c-0.5,0.5-0.8,0.9-1.1,1
			c-0.2,0.2-0.5,0.3-0.8,0.3c-0.3,0.1-0.5,0.1-0.8,0c-0.5-0.1-0.9-0.4-1.1-0.9c-0.3-0.5-0.3-1-0.1-1.6c0.1-0.2,0.1-0.4,0.2-0.5
			c0-0.1,0.2-0.3,0.3-0.6c0.2-0.3,0.3-0.5,0.3-0.6c0-0.1,0-0.1,0-0.2c0-0.1-0.1-0.1-0.3-0.2l0-0.2l2.2,0.6l0,0.2
			c-0.5,0-0.9,0-1.1,0.1c-0.3,0.1-0.5,0.2-0.7,0.5c-0.2,0.2-0.4,0.5-0.5,0.9c-0.1,0.4-0.1,0.7,0.1,1c0.1,0.3,0.4,0.5,0.7,0.5
			c0.2,0,0.3,0,0.5,0c0.2,0,0.4-0.1,0.6-0.3c0.1-0.1,0.4-0.4,0.9-0.9c0.5-0.5,0.8-0.8,1.1-1c0.2-0.2,0.5-0.3,0.8-0.4
			c0.3-0.1,0.5-0.1,0.8,0c0.5,0.1,0.8,0.4,1.1,0.9c0.2,0.4,0.3,0.9,0.1,1.5c-0.1,0.3-0.3,0.7-0.5,1c-0.1,0.2-0.2,0.3-0.2,0.3
			c0,0.1,0,0.2,0,0.2c0,0.1,0.1,0.1,0.3,0.2L112.6,74.9z"/>
		<path class="st2" d="M108.4,79.7c-0.1,0.3-0.4,0.5-0.7,0.7c-0.3,0.1-0.6,0.1-1,0c-0.3-0.1-0.5-0.4-0.7-0.7c-0.1-0.3-0.1-0.6,0-1
			c0.1-0.3,0.4-0.5,0.7-0.7c0.3-0.1,0.6-0.1,1,0c0.3,0.1,0.5,0.4,0.7,0.7C108.5,79,108.5,79.3,108.4,79.7z"/>
	</g>
	<g>
		<path class="st2" d="M11.2,87.3l-1.7,1.1C9.2,88.7,9,88.9,9,89c-0.1,0.2,0,0.4,0.1,0.6l0.1,0.2L9.1,90l-1.6-2.4l0.2-0.1l0.1,0.2
			C7.9,87.9,8.1,88,8.4,88c0.1,0,0.4-0.1,0.7-0.3l3.7-2.5c0.4-0.2,0.6-0.4,0.6-0.6c0.1-0.2,0-0.4-0.1-0.6L13,83.8l0.2-0.1l1.4,2.1
			c0.3,0.5,0.6,1,0.7,1.3c0.1,0.4,0.1,0.7,0,1.1c-0.1,0.4-0.3,0.7-0.7,0.9c-0.5,0.3-0.9,0.4-1.4,0.3c-0.5-0.1-0.9-0.4-1.3-1
			c-0.1-0.1-0.2-0.3-0.3-0.5C11.4,87.7,11.3,87.6,11.2,87.3z M11.5,87.2c0.1,0.2,0.1,0.3,0.2,0.4c0.1,0.1,0.1,0.2,0.2,0.3
			c0.2,0.3,0.5,0.5,0.8,0.5c0.4,0.1,0.7,0,1.1-0.3c0.2-0.2,0.4-0.4,0.6-0.6c0.1-0.2,0.2-0.5,0.2-0.7c0-0.3-0.1-0.5-0.3-0.7
			c-0.1-0.1-0.2-0.3-0.4-0.5L11.5,87.2z"/>
		<path class="st2" d="M16.2,95.9l0.1,0.1l-1.8,0.8l-3.5-4l0.1-0.1l0.2,0.2c0.2,0.2,0.4,0.3,0.6,0.3c0.1,0,0.3-0.2,0.6-0.4l3.4-2.9
			c0.3-0.3,0.5-0.5,0.5-0.6c0-0.2,0-0.4-0.2-0.6l-0.2-0.2l0.1-0.1l2,2.4l-0.1,0.1c-0.2-0.3-0.4-0.5-0.6-0.5
			c-0.2-0.1-0.3-0.1-0.4-0.1c-0.1,0-0.3,0.2-0.6,0.4l-3.3,2.8c-0.2,0.2-0.3,0.3-0.4,0.4c0,0.1,0,0.2,0,0.2c0,0.1,0.2,0.3,0.5,0.6
			l0.3,0.4c0.3,0.4,0.6,0.7,0.8,0.8c0.2,0.1,0.4,0.2,0.7,0.2C15.4,96.1,15.8,96,16.2,95.9z"/>
		<path class="st2" d="M20.5,99.3l-2-1.8L17.4,98c-0.3,0.1-0.4,0.2-0.5,0.3c-0.1,0.1-0.1,0.2-0.1,0.3c0,0.1,0.2,0.3,0.4,0.5
			l-0.1,0.1l-1.6-1.4l0.1-0.1c0.2,0.2,0.4,0.2,0.6,0.2c0.2,0,0.6-0.1,1.1-0.4l5.5-2.7l0.1,0.1l-2,5.9c-0.2,0.5-0.2,0.8-0.2,1
			c0,0.2,0.1,0.4,0.3,0.6l-0.1,0.1l-2-1.8l0.1-0.1c0.2,0.2,0.4,0.3,0.5,0.3c0.1,0,0.2,0,0.3-0.1c0.1-0.1,0.2-0.3,0.3-0.7L20.5,99.3z
			 M20.7,98.9l0.9-2.9l-2.7,1.3L20.7,98.9z"/>
		<path class="st2" d="M25.2,97.3l1.6,1l0.8,6.6l2.1-3.4c0.2-0.4,0.3-0.6,0.3-0.7c0-0.2-0.2-0.4-0.4-0.5l-0.2-0.1l0.1-0.2l2,1.3
			l-0.1,0.2l-0.2-0.1c-0.2-0.2-0.5-0.2-0.7-0.1c-0.1,0.1-0.3,0.2-0.5,0.6l-3.1,4.9l-0.2-0.1l-0.9-7.1l-2.2,3.6
			c-0.2,0.4-0.3,0.6-0.3,0.7c0,0.2,0.2,0.4,0.4,0.5l0.2,0.1l-0.1,0.2l-2-1.3l0.1-0.2l0.2,0.1c0.2,0.2,0.5,0.2,0.7,0.1
			c0.1-0.1,0.3-0.2,0.5-0.6l2.5-4.1c0-0.3-0.1-0.5-0.1-0.6c0-0.1-0.1-0.3-0.3-0.4c-0.1-0.1-0.2-0.2-0.4-0.3L25.2,97.3z"/>
		<path class="st2" d="M36.8,103.5l-0.6,1.5l-0.2-0.1c0.1-0.3,0.1-0.5,0.1-0.6c0-0.2-0.1-0.4-0.2-0.6c-0.1-0.2-0.3-0.3-0.6-0.4
			l-0.9-0.4l-2.1,4.8c-0.2,0.4-0.2,0.6-0.2,0.8c0.1,0.2,0.2,0.3,0.5,0.4l0.2,0.1l-0.1,0.2l-2.7-1.2l0.1-0.2l0.2,0.1
			c0.3,0.1,0.5,0.1,0.7,0c0.1-0.1,0.2-0.3,0.4-0.6l2.1-4.8l-0.8-0.3c-0.3-0.1-0.5-0.2-0.7-0.2c-0.2,0-0.4,0-0.6,0.2
			c-0.2,0.1-0.4,0.3-0.5,0.6l-0.2-0.1l0.7-1.4L36.8,103.5z"/>
		<path class="st2" d="M38.8,104.6l-0.8,2.6l1.4,0.4c0.4,0.1,0.6,0.1,0.8,0.1c0.2-0.1,0.4-0.3,0.5-0.7L41,107l-0.7,2.3l-0.2-0.1
			c0.1-0.3,0.1-0.6,0.1-0.7c0-0.1-0.1-0.2-0.2-0.4c-0.1-0.1-0.3-0.2-0.6-0.3l-1.4-0.4l-0.7,2.2c-0.1,0.3-0.1,0.5-0.1,0.5
			c0,0.1,0,0.1,0.1,0.2c0.1,0.1,0.2,0.1,0.4,0.2l1.1,0.3c0.4,0.1,0.6,0.2,0.8,0.2c0.2,0,0.4-0.1,0.6-0.2c0.3-0.1,0.6-0.4,0.9-0.7
			l0.2,0.1l-1.1,1.5l-5.1-1.5l0.1-0.2l0.2,0.1c0.2,0,0.3,0.1,0.5,0c0.1,0,0.2-0.1,0.3-0.2c0.1-0.1,0.2-0.3,0.2-0.6l1.3-4.3
			c0.1-0.4,0.2-0.7,0.1-0.8c-0.1-0.2-0.3-0.3-0.5-0.4l-0.2-0.1l0.1-0.2l5.1,1.5l-0.4,1.5l-0.2-0.1c0-0.4,0-0.6,0-0.8
			c0-0.2-0.1-0.3-0.3-0.4c-0.1-0.1-0.3-0.2-0.7-0.3L38.8,104.6z"/>
		<path class="st2" d="M47.6,111.3l0.2,0.1l-0.9,1.7l-5.2-1l0-0.2l0.3,0c0.3,0.1,0.5,0,0.7-0.2c0.1-0.1,0.2-0.3,0.2-0.7l0.8-4.4
			c0.1-0.4,0.1-0.7,0-0.8c-0.1-0.2-0.3-0.3-0.5-0.3l-0.3,0l0-0.2L46,106l0,0.2c-0.4-0.1-0.6-0.1-0.8,0s-0.3,0.1-0.3,0.2
			c-0.1,0.1-0.1,0.3-0.2,0.7l-0.8,4.2c-0.1,0.3-0.1,0.5,0,0.6c0,0.1,0.1,0.1,0.2,0.2c0.1,0,0.3,0.1,0.8,0.2l0.5,0.1
			c0.5,0.1,0.9,0.1,1.1,0.1c0.2,0,0.4-0.1,0.7-0.3C47.1,112,47.4,111.7,47.6,111.3z"/>
		<path class="st2" d="M50.7,106.8l1.9,0.1l3.9,5.4l0.2-4c0-0.4,0-0.7-0.1-0.8c-0.1-0.1-0.3-0.2-0.6-0.2l-0.2,0l0-0.2l2.4,0.1l0,0.2
			l-0.2,0c-0.3,0-0.5,0.1-0.6,0.2c-0.1,0.1-0.1,0.3-0.2,0.7l-0.3,5.8l-0.2,0l-4.2-5.8l-0.3,4.2c0,0.4,0,0.7,0.1,0.8
			c0.1,0.1,0.3,0.2,0.6,0.2l0.2,0l0,0.2l-2.4-0.1l0-0.2l0.2,0c0.3,0,0.5-0.1,0.6-0.2c0.1-0.1,0.1-0.3,0.2-0.7l0.3-4.8
			c-0.2-0.2-0.3-0.4-0.4-0.5c-0.1-0.1-0.2-0.2-0.4-0.2c-0.1,0-0.2-0.1-0.4-0.1L50.7,106.8z"/>
		<path class="st2" d="M62.9,111.6l-2.7,0.1l-0.4,1.1c-0.1,0.3-0.2,0.5-0.1,0.6c0,0.1,0.1,0.2,0.2,0.3c0.1,0.1,0.3,0.1,0.7,0.1
			l0,0.2l-2.2,0.1l0-0.2c0.3-0.1,0.5-0.1,0.5-0.2c0.2-0.2,0.3-0.5,0.5-1l2.2-5.8l0.2,0l2.6,5.6c0.2,0.5,0.4,0.7,0.6,0.9
			c0.2,0.1,0.4,0.2,0.7,0.2l0,0.2l-2.7,0.1l0-0.2c0.3,0,0.5-0.1,0.5-0.2c0.1-0.1,0.1-0.2,0.1-0.3c0-0.1-0.1-0.4-0.2-0.7L62.9,111.6z
			 M62.8,111.2l-1.3-2.7l-1.1,2.8L62.8,111.2z"/>
		<path class="st2" d="M70.1,106.3l0-0.2l2.4-0.4l0,0.2l-0.3,0c-0.3,0-0.5,0.2-0.6,0.4c-0.1,0.1,0,0.4,0,0.7l0.5,2.8
			c0.1,0.7,0.1,1.2,0.1,1.6c-0.1,0.4-0.3,0.8-0.6,1.1c-0.3,0.3-0.9,0.6-1.5,0.7c-0.7,0.1-1.3,0.1-1.8-0.1c-0.4-0.2-0.8-0.5-1-0.9
			c-0.2-0.3-0.3-0.8-0.4-1.6l-0.5-2.7c-0.1-0.4-0.2-0.7-0.3-0.8c-0.1-0.1-0.3-0.1-0.6-0.1l-0.3,0l0-0.2l2.9-0.5l0,0.2l-0.3,0
			c-0.3,0-0.5,0.2-0.6,0.4c-0.1,0.1-0.1,0.4,0,0.8l0.5,3c0,0.3,0.1,0.6,0.2,0.9c0.1,0.3,0.2,0.6,0.4,0.7c0.2,0.2,0.4,0.3,0.6,0.4
			c0.3,0.1,0.6,0.1,0.9,0c0.4-0.1,0.8-0.2,1.1-0.5c0.3-0.3,0.5-0.5,0.6-0.9c0.1-0.3,0.1-0.8-0.1-1.6l-0.5-2.7
			c-0.1-0.4-0.2-0.7-0.3-0.8c-0.2-0.1-0.4-0.2-0.6-0.1L70.1,106.3z"/>
		<path class="st2" d="M78.1,103.7l0.9,2.2l-0.1,0c-0.4-0.6-0.9-1-1.3-1.2c-0.5-0.2-1-0.2-1.5,0c-0.4,0.1-0.8,0.4-1.1,0.7
			c-0.3,0.3-0.4,0.8-0.5,1.3c0,0.5,0,1.2,0.3,1.9c0.2,0.6,0.5,1.1,0.8,1.4c0.3,0.4,0.7,0.6,1.2,0.7c0.5,0.1,0.9,0.1,1.4-0.1
			c0.4-0.1,0.8-0.3,1-0.6s0.5-0.8,0.7-1.4l0.2,0c-0.1,0.7-0.4,1.2-0.7,1.6c-0.4,0.4-0.8,0.7-1.4,0.9c-1.1,0.3-2.1,0.2-2.9-0.4
			c-0.6-0.5-1.1-1.1-1.3-1.9c-0.2-0.7-0.3-1.3-0.1-1.9c0.1-0.6,0.4-1.2,0.8-1.7c0.4-0.5,0.9-0.8,1.5-1c0.5-0.2,1-0.2,1.5-0.1
			c0.2,0,0.3,0,0.3,0c0.1,0,0.2-0.1,0.2-0.2c0.1-0.1,0.1-0.3,0.1-0.4L78.1,103.7z"/>
		<path class="st2" d="M84.8,105.8l-2.4,1.2l0.1,1.2c0,0.3,0.1,0.5,0.1,0.6c0,0.1,0.1,0.2,0.3,0.2s0.3,0,0.6-0.2l0.1,0.2l-1.9,1
			l-0.1-0.2c0.2-0.2,0.4-0.3,0.4-0.4c0.1-0.2,0.1-0.6,0.1-1.1l-0.4-6.1l0.2-0.1l4.7,4c0.4,0.3,0.7,0.5,0.9,0.6
			c0.2,0.1,0.4,0,0.7-0.1l0.1,0.2l-2.4,1.2l-0.1-0.2c0.2-0.1,0.4-0.3,0.4-0.4c0.1-0.1,0.1-0.2,0-0.3c-0.1-0.1-0.2-0.3-0.5-0.5
			L84.8,105.8z M84.5,105.5l-2.3-1.9l0.2,3L84.5,105.5z"/>
		<path class="st2" d="M92.5,101.1l0.2-0.1l0.6,1.9l-4.3,3.1l-0.1-0.2l0.2-0.2c0.2-0.2,0.3-0.4,0.3-0.6c0-0.1-0.1-0.4-0.4-0.7
			l-2.6-3.6c-0.3-0.3-0.4-0.5-0.6-0.6c-0.2,0-0.4,0-0.6,0.2l-0.2,0.2l-0.1-0.2l2.5-1.8l0.1,0.2c-0.3,0.2-0.5,0.4-0.6,0.5
			c-0.1,0.1-0.1,0.3-0.1,0.4c0,0.1,0.1,0.3,0.4,0.7l2.5,3.5c0.2,0.2,0.3,0.4,0.4,0.4c0.1,0,0.2,0,0.2,0c0.1,0,0.3-0.2,0.7-0.4
			l0.4-0.3c0.4-0.3,0.7-0.6,0.8-0.7c0.1-0.2,0.2-0.4,0.2-0.7C92.7,101.9,92.6,101.6,92.5,101.1z"/>
		<path class="st2" d="M93.7,98.3l1.4,1.4c0.3,0.3,0.5,0.5,0.7,0.5c0.2,0,0.4-0.1,0.6-0.2l0.2-0.2l0.1,0.1l-2.1,2l-0.1-0.1l0.2-0.2
			c0.2-0.2,0.3-0.4,0.3-0.6c0-0.1-0.2-0.3-0.4-0.6l-3.1-3.2c-0.3-0.3-0.5-0.5-0.7-0.5c-0.2,0-0.4,0.1-0.6,0.2l-0.2,0.2L89.8,97
			l1.8-1.7c0.4-0.4,0.8-0.7,1.2-0.9c0.3-0.2,0.7-0.2,1.1-0.2c0.4,0,0.7,0.2,1,0.5c0.4,0.4,0.6,0.9,0.5,1.4c0,0.5-0.3,1-0.8,1.5
			c-0.1,0.1-0.3,0.2-0.4,0.3C94.1,98,93.9,98.1,93.7,98.3z M93.5,98c0.2-0.1,0.3-0.2,0.4-0.3c0.1-0.1,0.2-0.2,0.3-0.2
			c0.3-0.2,0.4-0.6,0.4-0.9s-0.2-0.7-0.5-1c-0.2-0.2-0.4-0.4-0.7-0.5c-0.3-0.1-0.5-0.1-0.8-0.1c-0.2,0.1-0.5,0.2-0.7,0.4
			c-0.1,0.1-0.3,0.3-0.4,0.5L93.5,98z"/>
		<path class="st2" d="M99.6,93.3l-1.7,2.1l0.5,1.1c0.1,0.3,0.3,0.4,0.4,0.5c0.1,0.1,0.2,0.1,0.3,0.1s0.3-0.2,0.5-0.4l0.1,0.1
			l-1.4,1.7l-0.1-0.1c0.1-0.3,0.2-0.4,0.2-0.6c0-0.2-0.1-0.6-0.4-1.1l-2.8-5.5l0.1-0.1l5.9,1.8c0.5,0.1,0.8,0.2,1,0.2
			c0.2,0,0.4-0.2,0.6-0.4l0.1,0.1l-1.7,2.1l-0.1-0.1c0.2-0.2,0.2-0.4,0.2-0.5c0-0.1,0-0.2-0.1-0.3c-0.1-0.1-0.3-0.2-0.7-0.3
			L99.6,93.3z M99.2,93.1l-2.9-0.9l1.4,2.7L99.2,93.1z"/>
		<path class="st2" d="M97.5,88.6l1-1.6l6.6-0.9l-3.4-2.1c-0.4-0.2-0.6-0.3-0.7-0.3c-0.2,0-0.4,0.2-0.5,0.4l-0.1,0.2l-0.2-0.1l1.3-2
			l0.2,0.1l-0.1,0.2c-0.2,0.2-0.2,0.5-0.1,0.7c0.1,0.1,0.2,0.3,0.6,0.5l4.9,3l-0.1,0.2l-7.1,1l3.6,2.2c0.4,0.2,0.6,0.3,0.7,0.3
			c0.2,0,0.4-0.2,0.5-0.4l0.1-0.2l0.2,0.1l-1.3,2l-0.2-0.1l0.1-0.2c0.2-0.3,0.2-0.5,0.1-0.7c-0.1-0.1-0.2-0.3-0.6-0.5L99,88
			c-0.3,0-0.5,0.1-0.6,0.1c-0.1,0-0.3,0.1-0.4,0.3c-0.1,0.1-0.2,0.2-0.3,0.4L97.5,88.6z"/>
	</g>
</g>
</svg>
