<?xml version="1.0" encoding="utf-8"?>
<!-- Generator: Adobe Illustrator 22.1.0, SVG Export Plug-In . SVG Version: 6.00 Build 0)  -->
<svg version="1.1" id="Layer_1" xmlns="http://www.w3.org/2000/svg" xmlns:xlink="http://www.w3.org/1999/xlink" x="0px" y="0px" width="100" height="20"
	 viewBox="0 0 100 20" style="enable-background:new 0 0 100 20;" xml:space="preserve">
<g>
	<g>
		<path d="M38.4,8.6c-0.6,0-1.1,0.4-1.3,1h-1.9c-0.1-1.2-0.5-2.2-1.3-3.1l1.3-1.3c0.2,0.1,0.4,0.2,0.7,0.2c0.4,0,0.7-0.1,1-0.4
			c0.3-0.3,0.4-0.6,0.4-1c0-0.4-0.1-0.7-0.4-1c-0.3-0.3-0.6-0.4-1-0.4s-0.7,0.1-1,0.4c-0.3,0.3-0.4,0.6-0.4,1c0,0.2,0.1,0.5,0.2,0.7
			L33.4,6c-0.8-0.7-1.9-1.2-3.1-1.3V2.9c0.6-0.2,1-0.7,1-1.3c0-0.7-0.6-1.4-1.4-1.4c-0.7,0-1.4,0.6-1.4,1.4c0,0.6,0.4,1.1,1,1.3v1.9
			c-1.2,0.1-2.2,0.5-3.1,1.3l-1.3-1.3c0.1-0.2,0.2-0.4,0.2-0.7c0-0.4-0.1-0.7-0.4-1c-0.3-0.3-0.6-0.4-1-0.4s-0.7,0.1-1,0.4
			c-0.3,0.3-0.4,0.6-0.4,1c0,0.4,0.1,0.7,0.4,1c0.3,0.3,0.6,0.4,1,0.4c0.2,0,0.5-0.1,0.7-0.2L26,6.5c-0.7,0.8-1.2,1.9-1.3,3.1h-1.9
			c-0.2-0.6-0.7-1-1.3-1c-0.7,0-1.4,0.6-1.4,1.4s0.6,1.4,1.4,1.4c0.6,0,1.1-0.4,1.3-1h1.9c0.1,1.2,0.5,2.2,1.3,3.1l-1.3,1.3
			c-0.5-0.3-1.2-0.2-1.6,0.2c-0.5,0.5-0.5,1.4,0,1.9c0.3,0.3,0.6,0.4,1,0.4c0.4,0,0.7-0.1,1-0.4c0.4-0.4,0.5-1.1,0.2-1.6l1.3-1.3
			c0.8,0.7,1.9,1.2,3.1,1.3V17c-0.6,0.2-1,0.7-1,1.3c0,0.7,0.6,1.4,1.4,1.4c0.7,0,1.4-0.6,1.4-1.4c0-0.6-0.4-1.1-1-1.3v-1.9
			c1.1-0.1,2.1-0.5,2.9-1.1c0,0,0,0,0.1,0c0,0,0.1-0.1,0.1-0.1l1.3,1.3c-0.3,0.5-0.2,1.2,0.2,1.6c0.3,0.3,0.6,0.4,1,0.4
			c0.4,0,0.7-0.1,1-0.4c0.5-0.5,0.5-1.4,0-1.9c-0.4-0.4-1.1-0.5-1.6-0.2l-1.3-1.3c0.7-0.8,1.2-1.9,1.3-3.1h1.9c0.2,0.6,0.7,1,1.3,1
			c0.7,0,1.4-0.6,1.4-1.4C39.7,9.2,39.1,8.6,38.4,8.6z M35.5,3.6c0.1-0.1,0.3-0.2,0.4-0.2s0.3,0.1,0.4,0.2c0.2,0.2,0.2,0.6,0,0.8
			c-0.1,0.1-0.3,0.2-0.4,0.2c-0.2,0-0.3-0.1-0.4-0.2c0,0,0,0,0,0c0,0,0,0,0,0c-0.1-0.1-0.2-0.3-0.2-0.4C35.3,3.9,35.4,3.7,35.5,3.6z
			 M24.5,4.4c-0.2,0.2-0.6,0.2-0.8,0c-0.2-0.2-0.2-0.6,0-0.8c0.1-0.1,0.3-0.2,0.4-0.2c0.2,0,0.3,0.1,0.4,0.2
			C24.7,3.8,24.7,4.2,24.5,4.4z M21.6,10.5c-0.3,0-0.6-0.3-0.6-0.6c0-0.3,0.3-0.6,0.6-0.6c0.3,0,0.6,0.3,0.6,0.6
			C22.2,10.3,21.9,10.5,21.6,10.5z M24.5,16.3c-0.1,0.1-0.3,0.2-0.4,0.2c-0.2,0-0.3-0.1-0.4-0.2c-0.2-0.2-0.2-0.6,0-0.8
			c0.1-0.1,0.3-0.2,0.4-0.2c0.2,0,0.3,0.1,0.4,0.2C24.7,15.7,24.7,16.1,24.5,16.3z M35.5,15.5C35.5,15.5,35.5,15.5,35.5,15.5
			C35.5,15.5,35.5,15.5,35.5,15.5c0.1-0.1,0.3-0.2,0.4-0.2c0.2,0,0.3,0.1,0.4,0.2c0.2,0.2,0.2,0.6,0,0.8c-0.1,0.1-0.3,0.2-0.4,0.2
			s-0.3-0.1-0.4-0.2C35.3,16.1,35.3,15.7,35.5,15.5z M29.4,1.6C29.4,1.2,29.6,1,30,1c0.3,0,0.6,0.3,0.6,0.6S30.3,2.1,30,2.1
			C29.6,2.1,29.4,1.9,29.4,1.6z M30.6,18.3c0,0.3-0.3,0.6-0.6,0.6c-0.3,0-0.6-0.3-0.6-0.6c0-0.3,0.3-0.6,0.6-0.6
			C30.3,17.8,30.6,18,30.6,18.3z M33.2,13.1c-0.2-0.5-0.6-1-1-1.3c-0.3-0.2-0.6-0.4-1-0.5c0.3-0.3,0.5-0.8,0.5-1.3
			c0-1-0.8-1.8-1.8-1.8S28,8.9,28,9.9c0,0.5,0.2,1,0.6,1.3c-0.3,0.1-0.7,0.3-1,0.6c-0.2,0.1-0.2,0.4,0,0.5c0.1,0.2,0.4,0.2,0.5,0
			c0.5-0.4,1.1-0.7,1.8-0.7c1.2,0,2.2,0.8,2.6,1.8c-0.7,0.5-1.6,0.8-2.6,0.8c-2.5,0-4.5-2-4.5-4.5s2-4.5,4.5-4.5s4.5,2,4.5,4.5
			C34.5,11.2,34,12.3,33.2,13.1z M30.9,9.9c0,0.6-0.5,1.1-1.1,1.1c-0.6,0-1.1-0.5-1.1-1.1c0-0.6,0.5-1.1,1.1-1.1
			C30.5,8.9,30.9,9.4,30.9,9.9z M38.4,10.5c-0.3,0-0.6-0.3-0.6-0.6c0-0.3,0.3-0.6,0.6-0.6S39,9.6,39,9.9
			C39,10.3,38.7,10.5,38.4,10.5z"/>
	</g>
</g>
<g>
	<g>
		<g>
			<path d="M98.9,7.5c-0.1-0.1-0.3-0.1-0.4-0.1L97.7,8V1.4c0-0.4-0.3-0.7-0.7-0.6c0,0,0,0,0,0H82.9c-0.4,0-0.7,0.2-0.7,0.6
				c0,0,0,0,0,0v6.3l-0.4-0.3c-0.1-0.1-0.3-0.1-0.4,0.1c-0.5,0.6-0.7,1.3-0.7,2.1v6.5c0,1.4,0.8,2.9,2.9,2.9h13.2
				c1.4,0,2.9-0.8,2.9-2.9V9.6C99.6,8.8,99.4,8.1,98.9,7.5z M82.9,1.4h14.1c0.1,0,0.1,0,0.1,0v7l-6.9,4.5l-7.4-4.8l0-6.7
				C82.8,1.4,82.8,1.4,82.9,1.4z M81.3,16.8c-0.1-0.2-0.1-0.5-0.1-0.7l0-6.5c0-0.5,0.1-1,0.4-1.4l6,3.9L81.3,16.8z M96.7,18.4
				L96.7,18.4l-13.2,0c-1.1,0-1.7-0.5-2-1l6.6-5l1.7,1.1c0,0,0.1,0,0.1,0c0,0,0.1,0,0.1,0l1.7-1.1l6.7,5
				C98.1,18,97.4,18.4,96.7,18.4z M99,9.6l0,6.5c0,0.3,0,0.5-0.1,0.8l-6.3-4.8l6-3.9C98.9,8.6,99,9.1,99,9.6z"/>
		</g>
	</g>
	<g>
		<g>
			<path d="M91.4,3.3c-1.4-0.7-3.1-0.2-3.9,1.2c-0.2,0.4-0.3,0.9-0.3,1.3c0,1.6,1.3,2.9,2.9,2.9c0.2,0,0.5,0,0.7-0.1
				c0.1,0,0.2-0.1,0.2-0.1c0-0.1,0.1-0.2,0-0.2c0-0.1,0-0.1-0.1-0.2C90.9,8,90.8,8,90.7,8c-0.2,0-0.4,0.1-0.6,0.1
				c-1.3,0-2.3-1-2.3-2.3c0-1.3,1-2.3,2.3-2.3c1.3,0,2.3,1,2.3,2.3c0,0.4-0.1,0.7-0.3,1C92,7,91.9,7.1,91.8,7.2h-0.1
				c-0.1,0-0.1-0.2-0.1-0.2V5.8c0-0.8-0.6-1.5-1.4-1.6c-0.8,0-1.5,0.6-1.6,1.4c0,0.1,0,0.1,0,0.2c0,0.9,0.7,1.6,1.5,1.6
				c0.3,0,0.7-0.1,0.9-0.3v0c0,0.2,0.1,0.3,0.1,0.4c0.1,0.2,0.3,0.3,0.5,0.3c0.1,0,0.1,0,0.2,0c0.3-0.1,0.6-0.3,0.8-0.6v0
				C93.4,5.7,92.8,4,91.4,3.3z M90.1,6.8L90.1,6.8c-0.5,0-0.9-0.4-0.9-0.9c0,0,0,0,0,0c0-0.5,0.4-1,0.9-1c0.5,0,0.9,0.5,0.9,1
				C91,6.3,90.6,6.8,90.1,6.8z"/>
		</g>
	</g>
</g>
<g>
	<g>
		<g>
			<path d="M6.8,3.3V2.2H6.1v1H2.9v-1H2.2v1.2c0,1,0.4,2,1.1,2.7L4,6.7L3.3,7.4c-0.7,0.7-1.1,1.7-1.1,2.7v1.2h0.6v-1h3.2v1h0.6v-1.2
				c0-1-0.4-2-1.1-2.7L4.9,6.7L5.6,6C6.4,5.3,6.8,4.3,6.8,3.3z M3.2,4.7C3,4.4,2.9,4.1,2.9,3.8h3.2c0,0.3-0.2,0.7-0.3,1H3.2z
				 M5.8,8.6C5.9,9,6,9.3,6.1,9.6H2.9c0-0.3,0.2-0.7,0.3-1H5.8z M5.2,7.9c0,0,0.1,0.1,0.1,0.1H3.7c0,0,0.1-0.1,0.1-0.1l0.7-0.7
				L5.2,7.9z M5.2,5.5L4.5,6.2L3.8,5.5c0,0-0.1-0.1-0.1-0.1h1.7C5.3,5.4,5.2,5.5,5.2,5.5z"/>
		</g>
	</g>
	<g>
		<g>
			<path d="M18.5,0.2H1.6c-0.7,0-1.3,0.6-1.3,1.3v13c0,0.7,0.6,1.3,1.3,1.3h5.7l-0.7,1.9H4.8c-0.5,0-1,0.4-1,1c0,0.5,0.4,1,1,1h10.4
				c0.5,0,1-0.4,1-1c0-0.5-0.4-1-1-1h-1.7l-0.7-1.9h5.7c0.7,0,1.3-0.6,1.3-1.3v-13C19.8,0.8,19.2,0.2,18.5,0.2z M15.2,18.4
				c0.2,0,0.3,0.1,0.3,0.3c0,0.2-0.1,0.3-0.3,0.3H4.8c-0.2,0-0.3-0.1-0.3-0.3c0-0.2,0.1-0.3,0.3-0.3H15.2z M12.8,17.7H7.2L8,15.8
				h4.1L12.8,17.7z M19.1,14.5c0,0.4-0.3,0.6-0.6,0.6H1.6c-0.4,0-0.6-0.3-0.6-0.6v-1.3h18.2V14.5z M19.1,12.5H0.9v-11
				c0-0.4,0.3-0.6,0.6-0.6h16.9c0.4,0,0.6,0.3,0.6,0.6V12.5z"/>
		</g>
	</g>
	<g>
		<g>
			<rect x="9.7" y="13.8" width="0.6" height="0.6"/>
		</g>
	</g>
	<g>
		<g>
			<path d="M14.3,3.4l-1.1-0.5V2.2h-0.6v0.8l-1,0.5l-1-0.5V2.2H10v0.8L8.9,3.5C8.8,3.5,8.7,3.7,8.7,3.8v1.3H8.1v0.6H9L10,6.3V7h0.6
				V6.3l1-0.5l1,0.5V7h0.6V6.3l1.1-0.6c0.1-0.1,0.2-0.2,0.2-0.3V4.1h0.6V3.4H14.3z M11.3,5.2l-1,0.5l-1-0.5V4l1-0.5l1,0.5V5.2z
				 M13.9,5.2l-1,0.5l-1-0.5V4l1-0.5l1,0.5V5.2z"/>
		</g>
	</g>
	<g>
		<g>
			<rect x="15.9" y="2.8" width="0.6" height="0.6"/>
		</g>
	</g>
	<g>
		<g>
			<rect x="17.2" y="2.8" width="0.6" height="0.6"/>
		</g>
	</g>
	<g>
		<g>
			<rect x="8.4" y="9.3" width="9.4" height="0.6"/>
		</g>
	</g>
	<g>
		<g>
			<rect x="8.4" y="10.6" width="8.4" height="0.6"/>
		</g>
	</g>
	<g>
		<g>
			<rect x="10.3" y="8" width="7.5" height="0.6"/>
		</g>
	</g>
	<g>
		<g>
			<rect x="9" y="8" width="0.6" height="0.6"/>
		</g>
	</g>
</g>
<g>
	<g>
		<g>
			<path d="M76.2,1.6C76.2,1.6,76.2,1.7,76.2,1.6c-2.2,0.4-4.4,0-6.2-1.1l-0.4-0.3c-0.1-0.1-0.2-0.1-0.3,0l-0.4,0.3
				c-1.8,1.1-4,1.5-6.1,1.1c-0.2,0-0.3,0.1-0.4,0.3c0,0,0,0,0,0.1v9.9c0,1.3,0.3,2.5,1,3.6c0.7,1.3,1.9,2.3,3.2,2.9l2.8,1.2
				c0.1,0,0.2,0,0.3,0l2.8-1.2c0.2-0.1,0.3-0.1,0.5-0.2c0.2-0.1,0.2-0.3,0.1-0.4c-0.1-0.2-0.3-0.2-0.4-0.1c-0.1,0.1-0.3,0.1-0.4,0.2
				L69.4,19l-2.7-1.2c-1.2-0.5-2.2-1.4-2.9-2.6c-0.6-1-0.9-2.1-0.9-3.3V2.4c2.1,0.3,4.3-0.1,6.2-1.2L69.4,1l0.3,0.2
				c1.9,1.1,4.1,1.6,6.2,1.2v9.5c0,0.2,0.1,0.3,0.3,0.3s0.3-0.1,0.3-0.3V2C76.5,1.8,76.4,1.6,76.2,1.6z"/>
		</g>
	</g>
	<g>
		<g>
			<path d="M69.4,2.7c-0.1-0.2-0.3-0.2-0.4-0.1c0,0,0,0,0,0c-1.5,0.9-3.2,1.2-4.9,0.8c-0.2,0-0.3,0.1-0.4,0.3c0,0,0,0,0,0.1v7.7
				c0,1,0.3,2,0.8,2.9c0.6,1,1.5,1.8,2.6,2.2c0.2,0.1,0.4,0,0.4-0.2c0.1-0.2,0-0.4-0.2-0.4c-1-0.4-1.8-1.1-2.3-2
				c-0.5-0.8-0.7-1.6-0.7-2.5V4.1c1.7,0.3,3.5-0.1,5-1C69.4,3,69.5,2.8,69.4,2.7z"/>
		</g>
	</g>
	<g>
		<g>
			<path d="M77.4,16.5c-0.1-0.1-0.3-0.1-0.4,0L75.4,18c-0.1,0-0.2,0-0.3,0l-2.8-2.8c-0.1-0.1-0.3-0.1-0.5,0c-0.1,0.1-0.1,0.3,0,0.4
				l2.8,2.8c-0.1,0.3,0.1,0.7,0.4,0.8c0.1,0,0.1,0,0.2,0c0.4,0,0.6-0.3,0.6-0.6c0-0.1,0-0.1,0-0.2l1.5-1.5
				C77.5,16.8,77.5,16.6,77.4,16.5z"/>
		</g>
	</g>
	<g>
		<g>
			<path d="M74.5,7.5l-1.3-1.3c-0.1-0.1-0.3-0.1-0.5,0l-4,4l-1.1-1.1c-0.1-0.1-0.3-0.1-0.5,0L66,10.4c-0.1,0.1-0.1,0.3,0,0.5
				l2.6,2.6c0.1,0.1,0.1,0.1,0.2,0.1c0.1,0,0.2,0,0.2-0.1l5.5-5.5C74.6,7.8,74.6,7.6,74.5,7.5z M68.8,12.7l-2.1-2.1l0.8-0.8l1.1,1.1
				c0.1,0.1,0.3,0.1,0.5,0l4-4l0.8,0.8L68.8,12.7z"/>
		</g>
	</g>
</g>
<g>
	<g>
		<g>
			<path d="M59.5,8.1l-9.2-6.8c-0.2-0.1-0.4-0.1-0.6,0l-9.2,6.8c-0.2,0.2-0.3,0.5-0.1,0.7c0.2,0.2,0.5,0.3,0.7,0.1L50,2.4l8.9,6.5
				C59,9,59.1,9,59.2,9c0.2,0,0.3-0.1,0.4-0.2C59.8,8.6,59.7,8.3,59.5,8.1z"/>
		</g>
	</g>
	<g>
		<g>
			<path d="M57.1,9.1c-0.3,0-0.5,0.2-0.5,0.5v8.1h-4v-4.4c0-1.4-1.1-2.5-2.5-2.5s-2.5,1.1-2.5,2.5v4.4h-4V9.6c0-0.3-0.2-0.5-0.5-0.5
				c-0.3,0-0.5,0.2-0.5,0.5v8.6c0,0.3,0.2,0.5,0.5,0.5H48c0.3,0,0.5-0.2,0.5-0.5c0,0,0,0,0,0v-4.9c0-0.8,0.7-1.5,1.5-1.5
				c0.8,0,1.5,0.7,1.5,1.5v4.9c0,0,0,0,0,0c0,0.3,0.2,0.5,0.5,0.5h5.1c0.3,0,0.5-0.2,0.5-0.5V9.6C57.6,9.3,57.3,9.1,57.1,9.1z"/>
		</g>
	</g>
</g>
</svg>
